<?xml version="1.0" standalone="no"?>
<!DOCTYPE svg PUBLIC "-//W3C//DTD SVG 20010904//EN"
 "http://www.w3.org/TR/2001/REC-SVG-20010904/DTD/svg10.dtd">
<svg version="1.0" xmlns="http://www.w3.org/2000/svg"
 width="944.000000pt" height="960.000000pt" viewBox="0 0 944.000000 960.000000"
 preserveAspectRatio="xMidYMid meet">

<g transform="translate(0.000000,960.000000) scale(0.100000,-0.100000)"
fill="#000000" stroke="none">
<path d="M5345 9590 c3 -5 12 -7 20 -3 21 7 19 13 -6 13 -11 0 -18 -4 -14 -10z"/>
<path d="M5418 9578 c-2 -13 -9 -22 -15 -21 -16 3 -41 -29 -26 -34 21 -7 -32
-129 -59 -137 -20 -5 -25 -26 -6 -26 7 0 2 -7 -10 -16 -13 -9 -21 -22 -18 -29
2 -7 -2 -22 -10 -34 -8 -12 -12 -26 -9 -31 9 -15 -13 -40 -30 -34 -7 3 -16 1
-20 -5 -3 -6 1 -11 10 -11 14 0 14 -3 0 -30 -18 -35 -19 -47 -2 -53 6 -2 -1
-2 -17 1 -28 4 -29 4 -22 -33 7 -34 6 -36 -13 -30 -19 6 -21 2 -21 -29 0 -19
-5 -38 -11 -41 -6 -4 -8 -13 -5 -20 2 -7 0 -17 -6 -23 -8 -8 -8 -16 2 -27 10
-12 10 -15 -5 -15 -10 0 -15 -5 -12 -14 4 -9 0 -12 -12 -9 -13 3 -20 -3 -25
-22 -4 -14 -4 -31 0 -36 3 -6 -3 -17 -15 -25 -12 -9 -19 -19 -16 -24 3 -4 0
-10 -6 -12 -6 -2 -14 -19 -18 -38 -4 -19 -13 -34 -20 -32 -6 1 -16 -9 -21 -23
-5 -14 -14 -25 -20 -25 -5 0 -10 -9 -10 -20 0 -11 -6 -23 -14 -26 -19 -7 -29
-36 -16 -44 8 -5 3 -19 -13 -43 -14 -20 -27 -33 -31 -30 -3 4 -3 -9 0 -28 4
-19 12 -37 18 -41 6 -5 1 -8 -11 -8 -13 0 -23 -4 -23 -10 0 -5 -6 -10 -14 -10
-21 0 -31 -21 -15 -30 10 -7 10 -12 0 -23 -9 -12 -9 -16 1 -20 11 -4 11 -7 0
-18 -11 -12 -14 -12 -22 0 -13 22 -40 -5 -40 -39 0 -20 -6 -29 -22 -34 -18 -4
-20 -8 -10 -18 15 -15 16 -28 1 -28 -18 0 -38 -32 -39 -62 0 -18 -5 -28 -15
-28 -8 0 -17 -14 -21 -35 -3 -19 -11 -35 -16 -35 -6 0 -8 -9 -5 -20 3 -11 1
-17 -4 -14 -5 3 -12 -8 -15 -25 -4 -16 -12 -32 -20 -35 -8 -3 -14 -12 -14 -21
0 -9 -9 -35 -20 -57 -25 -53 -26 -80 -2 -71 12 4 14 3 7 -5 -5 -5 -19 -12 -30
-14 -14 -2 -21 -12 -23 -36 -2 -17 -9 -32 -16 -32 -6 0 -16 -15 -21 -32 -6
-18 -20 -37 -32 -43 -13 -5 -25 -22 -29 -40 -3 -16 -15 -40 -27 -52 -11 -13
-17 -26 -14 -30 4 -3 0 -17 -8 -30 -9 -13 -13 -28 -10 -33 3 -5 -5 -20 -17
-33 -13 -13 -22 -29 -20 -36 2 -7 -3 -11 -14 -9 -19 3 -37 -42 -27 -68 3 -8
-1 -14 -11 -14 -9 0 -22 -11 -28 -25 -6 -14 -14 -25 -17 -25 -4 0 -7 -10 -8
-21 -1 -12 -8 -29 -15 -38 -16 -19 -34 -56 -43 -88 -4 -14 -14 -23 -26 -23
-12 0 -19 -7 -19 -19 0 -11 -5 -23 -11 -27 -6 -3 -9 -15 -6 -25 3 -12 0 -19
-9 -19 -9 0 -14 -9 -13 -22 4 -49 -1 -70 -16 -65 -24 10 -68 -51 -61 -85 3
-17 1 -28 -5 -28 -7 0 -9 -10 -5 -24 6 -26 -23 -63 -31 -38 -7 20 -22 14 -16
-7 3 -10 0 -22 -6 -25 -5 -4 -8 -13 -5 -20 3 -9 -1 -13 -13 -13 -13 2 -17 -4
-16 -20 2 -15 -6 -25 -25 -34 -23 -10 -27 -17 -26 -52 1 -32 -5 -48 -27 -72
-34 -35 -35 -42 -11 -48 11 -3 9 -5 -8 -6 -39 -2 -50 -14 -52 -54 -1 -20 -5
-37 -10 -37 -5 0 -15 -15 -23 -32 -18 -40 -49 -78 -64 -78 -11 0 -15 -13 -11
-39 1 -9 -4 -12 -15 -7 -15 5 -17 1 -13 -29 2 -21 -1 -36 -9 -39 -8 -3 -10 1
-7 12 5 14 4 14 -4 3 -6 -8 -8 -20 -5 -27 2 -6 -6 -19 -19 -28 -13 -9 -23 -20
-24 -24 -2 -17 -19 -47 -37 -65 -14 -14 -16 -22 -8 -30 17 -17 13 -24 -13 -31
-13 -3 -26 -12 -29 -20 -4 -10 -1 -13 7 -10 8 3 17 1 21 -5 3 -7 -2 -11 -14
-11 -12 0 -21 -6 -21 -13 0 -7 -9 -23 -21 -35 -11 -12 -17 -27 -14 -32 4 -6
-1 -13 -9 -16 -9 -3 -16 -12 -16 -19 0 -6 -9 -20 -20 -30 -11 -10 -20 -24 -20
-32 0 -7 -7 -25 -16 -38 -15 -23 -15 -25 1 -25 13 0 9 -7 -14 -27 -17 -15 -31
-33 -31 -39 0 -6 -7 -17 -15 -24 -9 -7 -14 -19 -11 -26 3 -7 -6 -19 -18 -28
-28 -18 -70 -82 -62 -95 3 -5 -4 -11 -15 -14 -15 -4 -19 -11 -15 -25 4 -11 0
-24 -8 -31 -35 -30 36 -95 188 -173 18 -9 66 -50 107 -90 41 -41 89 -85 106
-97 18 -12 40 -37 49 -56 9 -19 24 -37 35 -40 10 -4 19 -12 19 -18 0 -7 13
-23 30 -37 16 -14 31 -36 34 -50 7 -40 17 -60 31 -60 7 0 15 -7 19 -15 3 -8
12 -15 20 -15 9 0 13 -6 10 -14 -5 -14 44 -56 65 -56 6 0 11 -6 11 -12 0 -7
27 -33 60 -57 34 -24 89 -73 123 -109 135 -142 164 -173 202 -218 43 -51 180
-188 217 -216 39 -31 45 -26 100 84 16 32 38 60 49 63 31 10 37 36 54 225 9
96 18 176 20 179 3 2 14 -8 26 -22 15 -20 27 -26 45 -22 13 3 35 7 49 10 21 5
32 -6 85 -76 33 -45 60 -87 60 -93 0 -6 11 -23 25 -38 14 -15 25 -30 25 -33 0
-15 77 -104 105 -122 39 -26 177 -73 214 -73 15 0 41 -4 57 -10 16 -5 58 -11
93 -13 54 -3 65 -7 72 -24 8 -21 39 -39 39 -23 0 6 7 10 15 10 10 0 15 -10 15
-30 0 -25 4 -30 24 -30 14 0 27 -4 30 -9 6 -8 63 13 76 28 7 8 61 34 79 37 8
1 17 7 20 13 3 5 19 13 34 16 15 4 27 11 27 16 0 5 7 9 15 9 8 0 15 6 15 13 0
19 23 42 105 109 39 31 92 77 119 102 27 25 53 46 57 46 5 0 9 5 9 10 0 13 46
66 130 148 36 35 64 70 62 78 -3 16 7 18 27 5 11 -7 10 -14 -6 -37 -13 -18
-20 -45 -20 -72 0 -37 3 -43 26 -49 36 -9 52 -32 45 -66 -11 -55 -19 -154 -24
-292 -3 -95 11 -201 34 -245 22 -45 23 -45 87 -53 35 -4 84 -5 109 -1 25 3 57
8 71 9 30 3 70 24 82 43 11 17 69 15 93 -3 10 -8 29 -15 41 -15 13 0 24 -8 28
-20 3 -11 11 -19 18 -17 6 1 13 -7 15 -18 2 -11 13 -26 23 -33 11 -7 19 -19
19 -26 0 -8 7 -17 16 -20 8 -3 13 -10 10 -15 -4 -5 -3 -11 1 -13 15 -6 63 -77
63 -93 0 -9 10 -26 23 -39 13 -13 23 -33 22 -45 -1 -11 3 -21 8 -21 5 0 7 -9
4 -20 -3 -11 -1 -20 5 -20 6 0 8 -9 5 -19 -3 -13 3 -26 19 -38 13 -10 24 -23
24 -30 0 -7 9 -17 19 -23 12 -6 22 -26 26 -51 5 -30 18 -53 47 -81 21 -21 44
-38 51 -39 7 0 37 -18 67 -39 68 -48 311 -170 340 -170 6 0 28 -9 48 -19 53
-28 138 -66 202 -91 30 -11 69 -27 85 -34 17 -7 86 -35 155 -61 69 -26 163
-65 210 -88 122 -59 323 -184 389 -242 31 -27 81 -70 110 -95 68 -58 284 -272
336 -333 22 -26 43 -47 48 -47 4 0 7 1742 7 3870 l0 3870 -2009 0 -2010 0 -3
-22z m-218 -542 c0 -11 -19 -15 -25 -6 -3 5 1 10 9 10 9 0 16 -2 16 -4z m3831
-120 c0 -6 4 -2 9 9 8 19 9 19 9 -1 1 -13 9 -24 22 -27 12 -3 18 -10 15 -16
-4 -5 -2 -12 4 -16 15 -9 12 -54 -5 -72 -14 -13 -18 -14 -33 -1 -24 21 -50 29
-57 18 -9 -15 -35 -12 -29 3 4 10 -3 12 -26 9 -25 -4 -32 -1 -37 17 -5 21 -23
30 -23 12 0 -13 -53 3 -58 17 -4 14 24 16 33 2 10 -17 25 -11 25 10 0 13 7 20
19 20 38 0 81 22 81 41 0 18 1 19 25 3 14 -9 25 -21 26 -28z m-4226 -676 c-3
-5 -12 -10 -18 -10 -7 0 -6 4 3 10 19 12 23 12 15 0z m410 -440 c3 -5 1 -10
-4 -10 -6 0 -11 5 -11 10 0 6 2 10 4 10 3 0 8 -4 11 -10z m276 -11 c11 -5 55
-12 98 -14 43 -2 101 -10 129 -19 29 -8 52 -13 52 -11 0 2 -10 13 -22 25 l-22
20 31 0 c18 0 38 -6 45 -14 9 -8 43 -14 98 -15 90 -2 127 -16 72 -27 -60 -12
-29 -43 36 -35 6 1 12 -2 12 -7 0 -6 7 -12 15 -15 11 -5 12 -1 5 18 -11 30 -2
37 39 29 21 -5 30 -12 29 -23 -2 -10 5 -17 21 -19 13 -2 33 -12 44 -23 24 -22
33 -24 42 -9 5 8 11 8 20 0 8 -7 16 -7 19 -1 7 11 68 12 86 1 8 -5 -7 -12 -41
-19 -56 -12 -84 -13 -209 -8 -41 1 -82 -1 -90 -5 -8 -4 -28 -9 -43 -13 -37 -8
-30 -25 19 -49 21 -10 41 -22 42 -27 2 -5 10 -9 19 -9 19 0 44 -25 40 -42 -2
-7 -2 -10 0 -6 3 4 13 2 23 -4 26 -17 37 -2 17 20 -10 10 -17 25 -17 33 0 8
15 -3 34 -24 18 -21 42 -40 52 -41 14 -2 18 -10 16 -30 -3 -22 2 -28 27 -37
17 -6 31 -15 31 -20 0 -5 7 -9 16 -9 9 0 12 5 8 12 -4 7 -9 21 -10 32 -1 12
-5 31 -9 44 -6 17 -3 22 9 22 9 0 16 -7 16 -15 0 -8 2 -15 4 -15 2 0 11 -2 19
-5 11 -5 14 4 12 40 -1 42 0 46 19 41 11 -3 31 -3 44 1 19 4 20 7 8 17 -19 15
-27 76 -9 76 7 0 13 -4 13 -10 0 -5 7 -10 16 -10 8 0 12 -4 9 -10 -3 -6 5 -11
19 -11 14 -1 31 -3 36 -4 6 -1 15 -3 20 -4 6 0 15 -12 20 -26 10 -27 35 -40
91 -50 21 -3 43 -13 50 -22 13 -14 11 -16 -15 -11 -16 3 -42 2 -57 -2 -17 -5
-31 -5 -34 1 -4 5 -15 9 -26 9 -16 0 -18 -4 -11 -16 5 -9 7 -26 4 -36 -4 -15
0 -19 14 -16 13 2 19 -3 18 -14 -1 -10 2 -15 7 -12 5 3 19 2 30 -1 17 -6 19
-9 8 -16 -11 -7 -9 -10 9 -15 16 -5 22 -14 22 -35 0 -17 6 -32 15 -35 8 -4 15
-12 15 -20 0 -8 5 -14 11 -14 11 0 4 49 -12 82 -5 10 -13 27 -18 37 -8 15 -7
18 8 14 10 -3 24 -17 31 -31 7 -15 16 -34 20 -42 4 -9 24 -16 47 -18 39 -3 40
-2 35 26 -2 16 1 33 7 36 6 4 11 1 11 -8 0 -8 10 -22 22 -30 18 -13 19 -18 8
-31 -15 -19 2 -45 31 -45 10 0 24 -9 33 -21 8 -12 22 -19 33 -17 15 3 18 12
16 50 l-1 47 24 -15 c19 -13 22 -22 17 -42 -5 -21 -3 -24 11 -19 12 5 27 -3
49 -28 51 -55 77 -92 77 -109 0 -9 4 -16 9 -16 17 0 76 -68 79 -91 1 -13 13
-33 27 -44 33 -28 79 -120 72 -146 -8 -28 2 -49 22 -49 13 0 14 -2 2 -9 -11
-7 -12 -13 -3 -23 6 -8 10 -23 10 -33 -1 -11 2 -33 6 -48 6 -24 3 -30 -14 -34
-11 -3 -20 -9 -20 -14 0 -5 6 -6 13 -3 10 4 12 -3 9 -25 -2 -17 -9 -29 -16
-28 -6 1 -11 -5 -11 -13 0 -19 -27 -38 -33 -22 -2 7 -8 12 -13 12 -16 0 3 -29
23 -36 13 -4 18 -12 15 -25 -3 -10 0 -19 6 -20 9 0 9 -2 0 -5 -6 -3 -35 18
-63 45 -29 28 -58 51 -65 51 -20 0 -6 -38 17 -46 21 -6 19 -29 -3 -29 -16 0
-48 60 -49 91 0 12 -15 35 -34 51 -18 17 -36 43 -41 59 -6 26 -8 27 -15 9 -6
-18 -8 -18 -33 8 -15 17 -25 39 -25 55 2 55 -26 110 -46 93 -14 -12 -39 -9
-59 7 -11 10 -17 9 -27 -3 -13 -15 -14 -28 -11 -124 1 -55 18 -44 23 14 2 27
8 40 18 41 9 0 10 -1 3 -3 -24 -8 -13 -23 12 -17 15 4 25 2 25 -5 0 -6 -11
-13 -24 -17 -18 -4 -24 -12 -23 -27 4 -38 26 -67 49 -64 14 1 26 -6 34 -22 7
-13 27 -33 45 -45 l32 -20 -6 23 c-5 22 -5 22 14 5 10 -9 19 -23 19 -30 0 -7
5 -14 10 -16 13 -4 43 -88 35 -96 -3 -3 -12 3 -21 14 -15 18 -15 17 -10 -13 3
-18 1 -35 -5 -39 -6 -3 -8 -13 -4 -21 3 -9 -3 -30 -13 -47 -12 -21 -16 -39
-11 -51 4 -11 8 -37 8 -58 1 -21 10 -55 21 -77 17 -33 21 -80 9 -110 -1 -3 -3
-32 -5 -65 -12 -251 -13 -239 7 -264 23 -29 17 -41 -9 -18 -16 15 -18 15 -19
-2 -2 -21 31 -31 101 -31 23 0 51 -6 61 -14 18 -13 18 -15 2 -40 -10 -14 -21
-26 -26 -26 -5 0 -7 -9 -4 -20 3 -11 9 -20 14 -20 5 0 9 -8 9 -17 0 -14 -2
-15 -9 -4 -6 9 -11 10 -15 2 -4 -6 -4 -15 -1 -21 3 -5 0 -19 -8 -31 -11 -16
-13 -29 -5 -55 7 -26 5 -42 -6 -65 -9 -17 -20 -59 -26 -93 -6 -33 -16 -77 -23
-96 -6 -19 -10 -40 -9 -47 2 -11 -16 -49 -55 -117 -7 -11 -13 -28 -13 -37 0
-10 -16 -21 -42 -30 -49 -16 -177 -17 -210 -2 -13 5 -44 17 -70 26 -41 14 -48
14 -48 2 0 -17 -17 -20 -22 -5 -8 26 11 208 26 235 18 34 20 55 6 55 -18 0
-11 20 8 21 14 1 14 2 1 6 -13 3 -15 14 -12 56 2 29 9 69 15 89 9 30 14 36 25
27 7 -6 13 -23 13 -37 0 -25 1 -25 14 -7 9 13 11 25 5 36 -4 9 -6 19 -3 22 3
3 -8 13 -26 22 -18 9 -34 14 -38 11 -3 -3 -11 -1 -18 4 -6 6 -16 10 -20 9 -5
-1 -24 2 -41 6 -37 8 -46 28 -10 21 68 -14 97 -16 97 -6 0 8 -37 15 -63 11 -4
-1 -10 6 -13 14 -3 8 -9 13 -13 11 -4 -3 -70 11 -146 30 -77 19 -167 41 -200
49 -33 7 -87 21 -120 30 -33 9 -80 21 -103 26 -24 5 -90 22 -145 37 -56 16
-132 37 -169 46 -73 20 -89 34 -108 104 -12 47 -23 57 -15 15 l5 -28 -15 30
-16 30 5 -32 c5 -28 3 -32 -14 -30 -11 2 -23 6 -26 10 -4 4 -13 2 -21 -4 -10
-9 -13 -8 -13 0 0 7 -5 9 -12 4 -7 -4 -35 -13 -63 -19 -45 -11 -47 -12 -16
-13 57 -2 25 -14 -52 -21 l-72 -6 35 -15 35 -16 -60 -13 c-47 -10 -73 -10
-130 0 -38 7 -90 16 -115 19 -35 5 -45 10 -44 24 2 14 -7 17 -52 17 -38 0 -53
-4 -52 -12 2 -9 -9 -12 -34 -10 -37 3 -43 -3 -39 -35 1 -7 -5 -13 -14 -13 -8
0 -15 5 -15 10 0 7 -7 7 -21 0 -15 -9 -24 -8 -35 1 -17 14 -19 -2 -1 -20 10
-11 8 -13 -10 -8 -12 2 -24 0 -26 -6 -2 -7 -15 -11 -30 -9 -33 2 -41 -11 -25
-40 24 -45 25 -67 9 -190 -15 -124 -10 -118 -103 -118 -108 0 -154 25 -194
106 -26 54 -28 65 -37 285 -5 125 -6 248 -3 272 16 102 93 158 169 122 20 -9
43 -15 52 -13 15 3 95 184 95 214 0 5 11 32 24 60 14 27 40 101 59 164 20 63
53 153 76 200 22 47 53 123 70 170 16 47 37 100 46 118 16 31 16 35 2 50 -13
13 -19 13 -31 2 -9 -7 -16 -18 -16 -25 0 -16 -27 -27 -35 -15 -10 16 -24 12
-50 -15 -14 -13 -25 -20 -25 -15 0 5 5 12 10 15 14 9 12 25 -2 25 -7 0 -21 11
-30 25 -16 21 -16 25 -3 38 8 8 11 17 8 21 -4 3 -1 6 5 6 7 0 12 -4 12 -10 0
-14 37 -13 46 1 3 6 19 9 35 5 24 -5 29 -2 29 15 0 12 5 19 13 16 6 -2 12 -15
12 -28 0 -17 6 -25 22 -27 13 -2 24 -12 27 -25 3 -12 3 -1 2 25 -3 41 -1 47
17 50 13 2 21 12 23 30 1 15 13 46 25 68 22 38 24 39 62 33 39 -6 40 -6 33 20
-5 23 -3 27 21 33 16 3 40 10 55 16 22 8 33 6 58 -12 l31 -22 -6 29 c-5 24 -4
26 7 12 15 -18 48 -33 66 -30 6 1 12 -4 12 -12 0 -7 13 -24 30 -37 16 -14 29
-31 30 -38 0 -7 11 -18 25 -24 30 -13 77 -90 69 -112 -4 -10 5 -20 31 -30 21
-9 41 -14 45 -11 5 3 11 1 15 -5 3 -5 15 -10 26 -10 10 0 19 -4 19 -9 0 -11
102 16 111 30 5 8 8 8 14 -1 4 -6 19 -16 33 -22 16 -6 22 -12 15 -15 -7 -3
-13 -9 -13 -14 0 -7 6 -7 17 0 13 7 16 20 14 56 -2 32 1 45 8 41 6 -4 11 0 11
8 0 9 7 16 16 16 12 0 14 4 7 13 -16 20 -23 59 -13 77 6 12 4 23 -9 36 -9 11
-16 25 -13 32 2 6 -1 12 -7 12 -6 0 -27 17 -46 38 -33 34 -40 37 -89 35 -42
-1 -58 3 -80 22 -18 15 -25 29 -20 37 4 7 -2 4 -14 -6 -12 -11 -22 -14 -22 -8
0 20 -16 13 -30 -13 -12 -22 -18 -25 -44 -19 -17 3 -37 11 -43 16 -15 12 -17
32 -3 23 6 -3 10 -1 10 4 0 7 -27 11 -70 11 -38 0 -70 -4 -70 -9 0 -4 14 -7
30 -5 21 3 30 -1 30 -11 0 -18 -17 -28 -25 -15 -4 6 -21 8 -41 4 -26 -5 -34
-3 -34 8 0 8 -9 23 -21 34 -15 14 -19 26 -15 50 5 23 1 35 -14 49 -15 14 -20
15 -21 4 0 -8 -4 -3 -10 9 -8 21 -14 23 -48 19 -34 -4 -39 -2 -36 14 2 10 -1
21 -6 24 -5 4 -7 11 -4 16 8 12 -28 12 -41 -1 -10 -10 -88 12 -111 32 -17 14
-16 31 1 25 9 -4 16 3 20 16 5 20 6 20 25 3 14 -12 27 -16 43 -10 20 6 21 5 9
-10 -18 -22 2 -21 36 1 15 10 37 16 51 14 20 -2 23 1 17 18 -5 16 -2 21 12 22
10 0 13 3 6 6 -29 11 -10 20 40 18 28 -1 57 2 62 6 26 19 185 25 216 8z m1199
-199 c0 -5 -7 -7 -15 -4 -8 4 -15 8 -15 10 0 2 7 4 15 4 8 0 15 -4 15 -10z
m-560 -10 c11 -7 12 -12 3 -21 -8 -8 -14 -6 -22 10 -12 22 -5 27 19 11z m453
-57 c-7 -2 -19 -2 -25 0 -7 3 -2 5 12 5 14 0 19 -2 13 -5z m-293 -24 c0 -5 -4
-9 -10 -9 -5 0 -10 7 -10 16 0 8 5 12 10 9 6 -3 10 -10 10 -16z m-35 -79 c3
-5 1 -10 -4 -10 -6 0 -11 5 -11 10 0 6 2 10 4 10 3 0 8 -4 11 -10z m352 4 c-3
-3 -12 -4 -19 -1 -8 3 -5 6 6 6 11 1 17 -2 13 -5z m132 -111 c14 -11 14 -12
-6 -13 -27 0 -34 10 -25 41 5 21 7 22 10 4 3 -11 12 -25 21 -32z m-1932 -15
c-3 -8 -6 -5 -6 6 -1 11 2 17 5 13 3 -3 4 -12 1 -19z m33 -28 c0 -5 -4 -10
-10 -10 -5 0 -10 5 -10 10 0 6 5 10 10 10 6 0 10 -4 10 -10z m156 -18 c-17
-33 -56 -56 -82 -49 -14 3 -10 6 14 12 23 5 31 12 28 22 -4 8 -1 11 5 8 6 -4
13 2 16 14 3 12 12 21 19 21 12 0 12 -4 0 -28z m-182 -16 c-3 -8 -15 -11 -30
-8 l-25 5 23 12 c26 14 39 10 32 -9z m2346 -825 c0 -9 3 -27 6 -41 6 -23 5
-24 -9 -10 -9 8 -19 30 -23 48 -6 27 -4 31 10 26 9 -3 16 -14 16 -23z m1555
-330 c-3 -5 4 -12 15 -16 25 -8 25 -16 0 -38 -21 -18 -46 -14 -34 4 3 5 0 17
-7 25 -10 13 -10 17 2 25 18 11 32 12 24 0z m108 -200 c6 -6 17 -11 25 -11 11
0 13 -9 8 -39 -4 -28 -2 -42 10 -51 12 -10 12 -15 2 -21 -20 -13 -2 -22 20
-10 15 8 23 7 32 -4 6 -7 21 -15 32 -17 41 -6 30 -26 -18 -34 -36 -5 -54 -3
-75 10 -16 10 -37 16 -47 15 -9 -1 -25 1 -35 6 -9 4 -25 5 -35 3 -10 -3 -23 1
-30 8 -18 20 -15 23 16 15 39 -11 94 5 90 27 -2 9 -13 18 -26 20 -12 2 -22 7
-22 12 0 17 -51 60 -70 60 -28 0 -25 18 3 22 43 6 109 0 120 -11z m-136 -107
c-3 -3 -12 -4 -19 -1 -8 3 -5 6 6 6 11 1 17 -2 13 -5z m-3716 -189 c68 -3 79
-9 79 -41 0 -15 6 -24 15 -24 8 0 15 5 15 10 0 6 9 10 20 10 11 0 20 7 20 15
0 17 35 21 45 5 3 -6 -5 -14 -19 -20 -14 -5 -26 -17 -26 -26 0 -12 -9 -15 -42
-13 -24 2 -51 7 -60 13 -11 7 -21 6 -31 -3 -19 -15 -31 1 -22 30 5 16 3 20 -6
17 -8 -3 -13 -13 -13 -22 2 -13 -4 -10 -22 9 -13 14 -24 30 -24 35 0 4 -3 10
-7 13 -5 2 -1 2 7 -1 8 -2 40 -5 71 -7z m-211 -15 c0 -5 -5 -10 -11 -10 -5 0
-7 5 -4 10 3 6 8 10 11 10 2 0 4 -4 4 -10z m40 0 c0 -5 -4 -10 -10 -10 -5 0
-10 5 -10 10 0 6 5 10 10 10 6 0 10 -4 10 -10z m-80 -22 c0 -19 -2 -20 -10 -8
-13 19 -13 30 0 30 6 0 10 -10 10 -22z m-644 -97 c43 -30 71 -42 124 -51 39
-7 70 -17 70 -23 0 -6 12 -24 27 -39 l27 -28 -54 0 c-30 0 -50 -4 -44 -8 12
-11 99 -43 110 -41 22 4 33 -2 39 -21 9 -27 -16 -50 -46 -43 -22 5 -23 4 -9
-11 9 -9 47 -23 84 -31 53 -10 77 -21 102 -46 19 -18 34 -37 34 -42 0 -18
-222 23 -244 44 -6 5 -18 9 -28 9 -10 0 -18 5 -18 10 0 6 -9 10 -20 10 -12 0
-28 13 -39 30 -21 35 -67 72 -113 91 -20 8 -36 26 -48 54 -12 29 -29 47 -53
58 -42 20 -57 47 -26 47 18 0 20 4 14 29 -5 23 -2 30 12 34 36 9 45 6 99 -32z
m924 13 c0 -8 -4 -12 -10 -9 -5 3 -10 10 -10 16 0 5 5 9 10 9 6 0 10 -7 10
-16z m-323 -199 c7 -2 15 1 19 7 5 7 10 3 15 -10 8 -22 39 -31 39 -12 0 6 7
10 15 10 8 0 15 -5 15 -10 0 -6 11 -15 25 -20 14 -5 25 -14 25 -19 0 -11 -59
-23 -74 -14 -6 4 -23 6 -37 5 -14 -2 -31 4 -39 12 -7 9 -17 16 -23 16 -13 0
-47 30 -47 42 0 7 29 4 67 -7z m1998 -25 c3 -5 1 -10 -4 -10 -6 0 -11 5 -11
10 0 6 2 10 4 10 3 0 8 -4 11 -10z m-2112 -20 c3 -11 1 -20 -4 -20 -5 0 -9 9
-9 20 0 11 2 20 4 20 2 0 6 -9 9 -20z m17 -40 c0 -5 -4 -10 -10 -10 -5 0 -10
5 -10 10 0 6 5 10 10 10 6 0 10 -4 10 -10z m2117 -402 c-3 -8 -6 -5 -6 6 -1
11 2 17 5 13 3 -3 4 -12 1 -19z m-2017 2 c0 -5 -4 -10 -10 -10 -5 0 -10 5 -10
10 0 6 5 10 10 10 6 0 10 -4 10 -10z m64 -73 c14 -14 26 -24 26 -22 0 3 8 -3
18 -12 11 -10 17 -21 15 -25 -2 -3 10 -9 27 -13 38 -8 47 -23 25 -43 -13 -13
-19 -14 -22 -4 -3 6 -9 12 -14 12 -10 0 -59 45 -59 54 0 2 -18 23 -41 46 -34
35 -39 43 -28 56 11 14 14 14 20 -4 4 -11 19 -31 33 -45z m1846 3 c-6 -11 -13
-20 -15 -20 -3 0 -5 9 -5 20 0 11 7 20 15 20 13 0 14 -4 5 -20z m-25 -52 c-6
-21 -55 -71 -62 -64 -2 2 6 22 19 45 23 44 54 58 43 19z m-1661 -77 c-6 -6
-24 19 -24 34 1 6 7 1 15 -9 8 -11 12 -22 9 -25z m1586 -27 c0 -14 -4 -22 -10
-19 -5 3 -10 17 -10 31 0 14 4 22 10 19 6 -3 10 -17 10 -31z m-790 -632 c-14
-5 -30 16 -30 38 1 10 7 7 21 -10 14 -17 17 -26 9 -28z"/>
<path d="M8908 8873 c7 -3 16 -2 19 1 4 3 -2 6 -13 5 -11 0 -14 -3 -6 -6z"/>
<path d="M5512 7650 c0 -14 2 -19 5 -12 2 6 2 18 0 25 -3 6 -5 1 -5 -13z"/>
<path d="M5465 7620 c3 -5 1 -10 -4 -10 -24 0 -9 -17 25 -29 27 -10 33 -16 23
-22 -11 -7 -11 -9 2 -9 12 0 16 9 15 30 -1 24 -5 30 -24 30 -13 0 -20 4 -17
10 3 6 -1 10 -10 10 -9 0 -13 -4 -10 -10z"/>
<path d="M5573 7523 c9 -2 15 -8 12 -13 -3 -5 -1 -11 4 -14 5 -4 13 -1 17 5 8
13 -14 29 -36 28 -11 -1 -10 -3 3 -6z"/>
<path d="M6034 7375 c3 -8 0 -15 -7 -15 -6 0 0 -8 13 -17 14 -9 28 -22 32 -27
4 -6 8 0 8 14 0 30 -9 44 -34 53 -14 6 -17 3 -12 -8z"/>
<path d="M6160 7380 c0 -12 28 -25 36 -17 3 3 -4 10 -15 17 -15 7 -21 7 -21 0z"/>
<path d="M6120 7350 c0 -5 5 -10 11 -10 5 0 7 5 4 10 -3 6 -8 10 -11 10 -2 0
-4 -4 -4 -10z"/>
<path d="M6590 7300 c0 -5 5 -10 11 -10 5 0 7 5 4 10 -3 6 -8 10 -11 10 -2 0
-4 -4 -4 -10z"/>
<path d="M6216 7215 c4 -8 13 -15 21 -15 8 0 11 -4 8 -10 -3 -5 -2 -10 4 -10
15 0 19 24 5 37 -18 18 -45 17 -38 -2z"/>
<path d="M6710 7211 c0 -6 4 -13 10 -16 6 -3 7 1 4 9 -7 18 -14 21 -14 7z"/>
<path d="M5922 7185 c0 -16 2 -22 5 -12 2 9 2 23 0 30 -3 6 -5 -1 -5 -18z"/>
<path d="M5990 7196 c0 -5 7 -17 16 -27 20 -22 13 -35 -26 -43 -17 -3 -29 -10
-26 -15 7 -11 -59 -24 -84 -16 -15 5 -18 3 -14 -9 3 -8 20 -16 37 -18 32 -3
33 -5 20 -49 -4 -14 3 -15 39 -12 23 3 46 9 49 15 4 7 9 7 13 -1 4 -6 2 -11
-3 -11 -6 0 -11 -4 -11 -10 0 -23 44 -8 77 27 31 31 34 39 24 55 -6 10 -9 23
-6 28 4 6 0 10 -8 10 -8 0 -18 15 -24 33 -7 26 -14 31 -33 29 -13 -1 -27 3
-32 10 -4 7 -8 9 -8 4z m10 -96 c0 -11 -4 -20 -10 -20 -5 0 -10 9 -10 20 0 11
5 20 10 20 6 0 10 -9 10 -20z"/>
<path d="M5906 7141 c-4 -7 -5 -15 -2 -18 9 -9 19 4 14 18 -4 11 -6 11 -12 0z"/>
<path d="M6150 7096 c0 -34 71 -79 86 -55 5 9 2 10 -9 6 -10 -3 -17 -2 -17 3
0 6 -7 10 -15 10 -8 0 -15 9 -15 19 0 10 -7 21 -15 25 -9 3 -15 0 -15 -8z"/>
<path d="M6210 7080 c0 -5 5 -10 10 -10 6 0 10 5 10 10 0 6 -4 10 -10 10 -5 0
-10 -4 -10 -10z"/>
<path d="M4800 7050 c0 -5 5 -10 11 -10 5 0 7 5 4 10 -3 6 -8 10 -11 10 -2 0
-4 -4 -4 -10z"/>
<path d="M5875 7030 c4 -6 11 -8 16 -5 14 9 11 15 -7 15 -8 0 -12 -5 -9 -10z"/>
<path d="M6180 7008 c0 -4 5 -8 10 -8 6 0 10 -7 10 -15 0 -12 3 -12 18 3 10 9
17 19 15 21 -6 8 -53 7 -53 -1z"/>
<path d="M6803 6980 c3 -11 2 -20 -2 -20 -4 0 -7 -9 -7 -19 0 -11 4 -17 8 -15
4 3 8 -4 8 -14 0 -15 5 -19 19 -15 10 3 22 0 25 -5 3 -6 15 -8 25 -5 16 4 19
1 14 -16 -4 -15 -1 -21 10 -21 24 0 15 45 -19 91 -20 27 -35 38 -47 35 -13 -3
-17 0 -13 10 3 8 -1 14 -10 14 -11 0 -15 -6 -11 -20z"/>
<path d="M6936 6910 c14 -22 24 -46 20 -55 -10 -26 4 -44 35 -43 35 1 33 19
-2 29 -16 5 -18 7 -6 8 21 1 23 17 2 25 -8 3 -15 11 -15 18 -1 17 -35 58 -49
58 -6 0 1 -18 15 -40z"/>
<path d="M6866 6871 c-4 -7 -5 -15 -2 -18 9 -9 19 4 14 18 -4 11 -6 11 -12 0z"/>
<path d="M6994 6769 c3 -8 9 -22 12 -31 10 -29 23 -21 15 9 -4 15 -13 29 -20
31 -9 3 -11 -1 -7 -9z"/>
<path d="M7052 6700 c0 -14 2 -19 5 -12 2 6 2 18 0 25 -3 6 -5 1 -5 -13z"/>
<path d="M6262 6598 c-12 -6 -22 -16 -21 -22 3 -29 -2 -46 -16 -46 -8 0 -15
-4 -15 -10 0 -5 11 -10 24 -10 13 0 27 -7 30 -17 6 -14 8 -14 21 3 10 14 14
15 15 5 0 -8 3 -12 6 -8 4 3 21 0 38 -7 17 -7 36 -11 43 -9 7 2 21 -1 32 -7
15 -8 27 -8 41 0 14 8 20 8 20 0 0 -6 4 -9 9 -6 5 4 2 27 -8 53 -13 38 -24 52
-53 66 -46 23 -135 31 -166 15z"/>
<path d="M5380 6411 c0 -6 -12 -11 -27 -10 -48 2 -193 -14 -193 -21 0 -15 26
-28 60 -32 29 -2 35 -7 33 -24 -4 -40 57 -80 115 -75 22 2 52 40 52 66 0 14 5
25 10 25 6 0 9 13 8 29 -1 19 -6 27 -15 24 -8 -3 -13 0 -11 8 2 7 -5 15 -14
17 -10 2 -18 -1 -18 -7z"/>
<path d="M5917 6334 c-2 -13 0 -24 4 -24 16 0 -3 -30 -20 -30 -13 -1 -13 -3 4
-16 14 -11 17 -17 8 -22 -7 -5 -10 -19 -8 -34 4 -19 0 -28 -12 -31 -12 -3 -8
-5 9 -6 21 -1 25 -5 21 -21 -4 -13 -14 -20 -32 -21 -14 0 -19 -3 -11 -6 46
-15 46 -15 25 -23 -15 -6 -16 -9 -4 -9 9 -1 22 -12 29 -26 8 -14 28 -34 45
-45 16 -10 40 -33 53 -49 12 -17 29 -31 37 -31 7 0 16 -8 20 -19 3 -10 20 -22
38 -26 18 -4 37 -9 43 -10 6 -2 21 -6 33 -10 32 -10 26 15 -14 58 -19 20 -35
44 -35 53 0 11 -6 14 -21 9 -15 -5 -19 -4 -15 4 4 6 23 11 42 11 36 0 46 16
17 27 -10 4 -22 13 -26 20 -5 8 -16 11 -27 8 -26 -8 -34 22 -9 36 20 10 20 11
-11 42 -17 18 -38 40 -47 50 -9 9 -25 17 -35 17 -10 0 -18 5 -18 10 0 6 -10
10 -21 10 -21 0 -21 1 -4 26 9 14 14 32 11 41 -3 8 1 21 9 29 23 24 18 29 -29
31 -39 2 -44 -1 -49 -23z"/>
<path d="M6230 6192 c0 -6 6 -13 13 -15 6 -3 -3 -3 -20 0 -18 3 -33 3 -33 0 0
-17 27 -53 38 -49 11 3 17 -21 13 -53 -2 -22 65 -40 154 -41 50 0 93 1 97 3 5
2 -1 22 -12 43 -11 22 -20 47 -20 57 0 33 -57 56 -147 61 -54 3 -83 1 -83 -6z"/>
<path d="M6470 6132 c0 -21 38 -55 63 -58 l27 -3 -28 22 c-55 45 -62 49 -62
39z"/>
<path d="M6570 6036 c0 -11 9 -16 26 -16 31 0 28 23 -4 28 -15 2 -22 -2 -22
-12z"/>
<path d="M4828 5763 c6 -2 18 -2 25 0 6 3 1 5 -13 5 -14 0 -19 -2 -12 -5z"/>
<path d="M5248 5753 c6 -2 18 -2 25 0 6 3 1 5 -13 5 -14 0 -19 -2 -12 -5z"/>
<path d="M6624 5582 c-17 -2 -23 -12 -26 -38 -3 -27 -1 -33 10 -29 8 3 20 1
26 -3 23 -19 54 -20 59 -3 7 26 -11 64 -27 58 -8 -3 -16 -1 -18 6 -2 7 -13 11
-24 9z"/>
<path d="M5280 9570 c0 -5 5 -10 11 -10 5 0 7 5 4 10 -3 6 -8 10 -11 10 -2 0
-4 -4 -4 -10z"/>
<path d="M5320 9531 c0 -9 30 -24 36 -18 2 1 -6 8 -16 15 -11 7 -20 8 -20 3z"/>
<path d="M5250 9370 c0 -6 7 -10 15 -10 8 0 15 2 15 4 0 2 -7 6 -15 10 -8 3
-15 1 -15 -4z"/>
<path d="M5191 9154 c0 -11 3 -14 6 -6 3 7 2 16 -1 19 -3 4 -6 -2 -5 -13z"/>
<path d="M0 5898 c0 -19 2 -20 10 -8 13 19 13 30 0 30 -5 0 -10 -10 -10 -22z"/>
<path d="M40 5850 c0 -5 5 -10 10 -10 6 0 10 5 10 10 0 6 -4 10 -10 10 -5 0
-10 -4 -10 -10z"/>
<path d="M297 5853 c-12 -12 -7 -22 8 -17 8 4 15 10 15 15 0 11 -14 12 -23 2z"/>
<path d="M115 5810 c-3 -5 -1 -10 4 -10 6 0 11 5 11 10 0 6 -2 10 -4 10 -3 0
-8 -4 -11 -10z"/>
<path d="M0 5776 c0 -22 3 -27 11 -19 8 8 8 16 0 30 -9 16 -10 14 -11 -11z"/>
<path d="M2660 5790 c0 -5 5 -10 11 -10 5 0 7 5 4 10 -3 6 -8 10 -11 10 -2 0
-4 -4 -4 -10z"/>
<path d="M537 5773 c-3 -5 1 -14 9 -21 8 -7 14 -8 14 -2 0 5 8 10 18 11 14 0
14 2 -3 9 -26 11 -33 12 -38 3z"/>
<path d="M230 5747 c0 -10 8 -17 18 -17 9 0 13 4 7 8 -5 4 -13 11 -17 16 -5 5
-8 2 -8 -7z"/>
<path d="M0 3078 c0 -2349 2 -2639 15 -2628 8 7 15 18 15 24 0 21 26 49 38 42
13 -8 3 -29 -40 -86 l-26 -36 -2 -197 -1 -197 645 0 c399 0 647 4 651 10 3 5
11 7 19 4 9 -4 11 4 8 27 -3 20 0 34 9 40 11 6 10 9 -4 15 -18 7 -23 39 -8 49
5 3 17 -5 25 -17 l16 -22 11 32 c6 18 15 32 20 32 5 0 9 14 9 30 0 17 -4 30
-10 30 -18 0 -11 18 10 25 23 7 27 25 5 25 -17 0 -20 16 -5 25 5 3 7 12 4 19
-3 8 -1 17 5 21 6 3 11 30 11 60 0 30 5 57 12 61 7 5 9 0 6 -14 -4 -15 -2 -19
8 -15 18 7 18 17 -1 33 -9 7 -12 16 -7 19 10 7 32 81 32 108 0 11 11 32 25 47
28 30 31 46 13 65 -11 10 -10 14 4 22 14 8 15 14 7 33 -8 17 -8 29 0 42 6 11
11 13 11 7 0 -27 20 -11 20 16 0 16 6 32 13 35 10 5 10 7 0 12 -19 8 -16 35 2
27 13 -4 15 2 13 31 -1 21 -5 39 -8 41 -4 2 -5 18 -2 35 4 30 26 41 35 18 2
-7 7 -10 11 -7 4 4 1 18 -5 33 -14 29 -9 39 22 41 20 1 69 49 69 68 0 5 9 7
21 4 13 -4 22 0 26 11 4 9 15 25 26 34 17 16 18 18 2 42 -22 33 -28 33 -13 2
9 -20 7 -28 -7 -42 -14 -15 -18 -15 -26 -3 -7 11 -9 11 -9 -3 0 -23 -18 -32
-35 -18 -12 10 -15 9 -15 -9 0 -11 -4 -21 -10 -21 -5 0 -10 9 -10 20 0 20 -15
28 -22 11 -1 -4 -12 -5 -23 0 -16 6 -17 8 -3 8 24 1 59 55 62 96 2 20 11 44
21 56 18 19 18 20 1 37 -18 16 -18 16 -7 -5 9 -18 9 -23 -2 -23 -19 0 -37 21
-37 43 0 16 -3 17 -15 7 -19 -16 -19 -30 -1 -30 26 0 25 -28 0 -45 -20 -13
-24 -22 -20 -40 3 -13 2 -27 -4 -30 -6 -3 -7 1 -4 9 4 11 0 16 -10 16 -13 0
-15 7 -11 30 4 23 2 28 -9 24 -17 -7 -28 -31 -17 -38 12 -8 1 -56 -13 -56 -6
0 -23 -14 -38 -30 -21 -24 -23 -30 -10 -30 14 -1 14 -3 -3 -18 -12 -9 -27 -33
-35 -52 -17 -42 -36 -63 -49 -55 -5 3 -13 0 -17 -6 -3 -6 0 -15 7 -20 11 -7 9
-9 -8 -9 -12 0 -23 -5 -25 -12 -2 -6 -10 -8 -16 -4 -13 8 -7 46 10 57 4 3 13
31 18 62 11 67 17 80 36 73 10 -4 12 2 7 25 -5 25 -2 31 15 36 18 4 19 8 10
29 -13 28 4 78 25 71 6 -2 17 3 24 12 17 22 16 32 -2 25 -19 -8 -19 -2 -1 41
10 22 24 37 40 41 14 3 26 13 26 21 0 7 11 25 24 38 13 13 19 26 14 27 -10 4
-4 26 38 158 19 57 25 82 26 97 1 7 7 14 15 17 7 3 13 19 13 36 0 18 6 33 15
36 8 4 15 14 15 23 0 23 39 96 78 144 12 16 25 39 28 52 3 14 14 27 24 30 12
4 17 12 13 21 -3 8 1 22 10 32 8 9 22 32 31 50 19 38 8 42 -35 11 -16 -11 -36
-19 -43 -16 -8 3 -22 -1 -33 -8 -37 -29 -42 -13 -8 31 36 47 43 68 25 79 -6 4
-13 -7 -16 -24 -4 -17 -10 -31 -15 -31 -15 0 -10 42 7 61 19 22 11 39 -19 38
-21 0 -21 -1 -2 -9 18 -8 17 -9 -6 -9 -15 -1 -38 -10 -51 -21 -14 -10 -28 -17
-31 -13 -4 3 -14 -8 -24 -26 -10 -17 -24 -31 -31 -31 -22 0 -73 -63 -68 -83 3
-12 0 -17 -7 -14 -7 3 -21 -13 -31 -34 -18 -35 -46 -53 -46 -29 0 6 6 10 13
10 9 0 9 2 -1 8 -9 6 -6 14 13 32 14 13 25 29 25 35 0 7 19 30 43 52 41 39 64
72 88 123 29 63 279 555 359 705 81 152 89 169 82 180 -3 5 -1 6 3 2 5 -4 16
7 25 25 9 18 35 67 57 108 84 156 133 251 133 260 0 5 16 34 35 64 19 30 35
59 35 65 0 5 6 16 14 24 15 15 56 87 56 98 0 4 16 36 36 71 63 109 84 151 84
163 0 7 7 18 15 25 8 7 15 21 15 31 0 11 4 19 9 19 5 0 11 8 15 18 3 9 32 67
65 127 32 61 78 148 101 195 46 92 48 96 97 186 18 34 33 71 33 82 0 11 6 22
13 25 22 8 116 209 115 245 -1 38 -13 49 -34 31 -22 -18 -68 5 -61 31 5 18 0
20 -49 19 -38 -1 -54 -6 -54 -15 0 -17 -8 -17 -40 1 -14 8 -19 14 -12 15 6 0
12 11 12 25 0 23 -4 25 -40 25 -22 0 -40 3 -40 8 0 12 -103 4 -111 -9 -11 -18
0 -39 17 -32 8 3 14 0 14 -6 0 -6 9 -11 20 -11 14 0 20 -7 20 -24 0 -13 3 -33
6 -43 4 -10 -6 1 -22 25 -21 31 -35 42 -54 42 -14 0 -31 9 -38 20 -8 13 -23
20 -41 20 -35 0 -48 15 -25 28 14 8 13 10 -5 15 -28 7 -35 -11 -28 -63 l5 -40
-39 0 -39 0 0 50 c0 30 -4 50 -11 50 -7 0 -10 -12 -7 -30 5 -33 -3 -38 -23
-14 -11 14 -14 13 -26 -10 -11 -20 -21 -26 -48 -26 -18 0 -39 -2 -47 -3 -7 -2
-10 -2 -6 0 5 3 8 11 8 19 0 10 13 14 43 15 l42 2 -50 7 c-57 8 -65 6 -65 -20
0 -21 -22 -30 -60 -25 -14 2 -36 4 -50 4 -23 1 -23 3 -7 12 10 6 29 8 43 5 21
-6 24 -3 24 24 0 27 -3 30 -24 24 -13 -3 -33 -1 -44 5 -16 9 -21 7 -25 -9 -3
-11 -14 -20 -24 -20 -10 0 -24 -5 -31 -12 -9 -9 -12 -8 -12 5 0 20 -4 21 -30
7 -25 -13 -50 -3 -50 21 0 21 11 24 27 8 21 -21 40 -3 35 30 -5 33 -22 33 -22
0 0 -35 -18 -20 -25 21 -6 34 -11 40 -28 39 -45 -4 -66 2 -70 19 -4 16 -5 16
-6 0 -2 -26 -29 -22 -34 5 l-4 22 -8 -22 c-6 -19 -15 -23 -49 -24 l-41 -1 30
-13 c17 -7 32 -9 33 -4 5 12 79 12 86 0 4 -5 3 -17 0 -26 -5 -13 -15 -15 -44
-10 -24 4 -51 1 -75 -9 -21 -9 -57 -16 -81 -16 -44 0 -44 0 -45 38 -1 20 -1
40 0 45 2 14 -18 7 -29 -10 -8 -13 -13 -14 -16 -5 -3 6 -12 12 -20 12 -9 0
-14 11 -14 30 0 35 -15 40 -25 9 -5 -15 -10 -18 -18 -10 -8 8 -8 14 1 23 7 7
12 16 12 20 0 13 -20 9 -37 -8 -13 -13 -14 -20 -5 -35 7 -10 12 -26 12 -34 0
-19 7 -19 27 1 15 15 18 14 34 -8 22 -28 26 -67 6 -49 -8 6 -17 8 -20 4 -4 -3
-13 0 -22 7 -18 15 -19 14 -39 -25 l-16 -30 0 28 c0 20 -6 30 -20 34 -24 6
-26 19 -3 27 23 9 3 27 -48 42 -37 11 -39 11 -34 -7 7 -20 -9 -27 -20 -9 -13
21 -25 9 -25 -25 0 -19 -4 -35 -10 -35 -5 0 -10 7 -10 15 0 8 -9 15 -20 15
-11 0 -20 -7 -20 -15 0 -8 -4 -15 -10 -15 -5 0 -10 -10 -10 -21 0 -17 -4 -20
-22 -15 -13 3 -31 6 -40 6 -10 0 -18 7 -18 15 0 11 11 15 40 15 38 0 40 2 40
30 0 28 -2 30 -40 30 -29 0 -40 4 -40 15 0 11 11 15 40 15 22 0 40 5 40 10 0
6 -18 10 -39 10 -39 0 -57 -17 -52 -47 1 -9 -13 -13 -44 -13 l-47 0 2 -42 c1
-24 1 -49 1 -55 -1 -17 -38 -17 -43 -1 -3 7 -22 12 -49 12 -39 -1 -40 0 -6 3
36 4 37 5 37 44 l0 40 -79 -2 c-55 -2 -84 1 -96 11 -15 12 -15 14 -1 22 9 5
16 20 16 33 0 22 -4 25 -41 25 -22 0 -38 -4 -35 -9 3 -5 -3 -11 -14 -14 -26
-7 -25 -21 3 -35 22 -10 22 -11 -5 -11 -16 -1 -28 4 -28 9 0 6 -9 10 -20 10
-16 0 -20 -7 -20 -35 0 -34 -1 -35 -39 -35 -22 0 -42 -5 -44 -12 -4 -10 -8
-10 -16 1 -6 9 -6 21 0 32 10 19 -6 29 -48 29 -14 0 -33 10 -44 23 -10 12 -18
17 -19 10 0 -6 5 -15 11 -19 6 -3 9 -14 6 -24 -5 -20 23 -48 41 -42 12 4 13 1
15 -40 2 -28 -19 -35 -28 -9 -3 10 -12 22 -20 25 -8 3 -15 12 -15 21 0 8 -4
15 -9 15 -5 0 -12 9 -16 20 -5 16 -9 17 -20 7 -7 -6 -9 -14 -5 -17 4 -3 10
-16 14 -30 5 -16 4 -20 -2 -12 -6 9 -19 10 -48 4 l-39 -8 33 -14 c17 -8 32
-21 32 -27 0 -7 5 -13 10 -13 6 0 10 -11 10 -25 0 -30 -16 -33 -23 -5 -6 24
-29 26 -47 5 -14 -17 -40 -20 -40 -5 0 6 7 10 15 10 8 0 15 5 15 10 0 6 -7 10
-15 10 -8 0 -15 5 -15 10 0 6 7 10 16 10 8 0 12 5 9 10 -3 6 -16 8 -29 4 -17
-4 -25 1 -34 18 -11 21 -12 19 -8 -17 5 -37 4 -39 -10 -20 -8 11 -12 26 -9 33
3 8 5 20 5 28 0 9 4 13 9 9 6 -3 11 12 13 32 2 29 8 38 23 40 39 4 52 9 70 26
17 17 16 18 -9 11 -23 -5 -25 -4 -19 12 3 11 13 29 21 42 9 14 10 22 3 22 -6
0 -11 18 -12 43 0 23 -3 36 -6 30 -2 -7 -12 -13 -20 -13 -10 0 -13 -6 -9 -16
4 -9 1 -23 -5 -30 -9 -11 -8 -14 1 -14 8 0 11 -3 8 -6 -3 -3 -21 -2 -40 1 -32
6 -34 9 -34 43 1 20 5 40 11 44 5 4 6 10 2 14 -4 4 -13 2 -19 -4 -15 -15 -38
-16 -38 -2 0 6 7 10 15 10 20 0 19 39 -1 47 -9 3 -20 0 -25 -8 -6 -10 -9 -4
-9 19 0 30 -2 32 -37 33 -21 0 -57 2 -80 4 l-43 3 0 -2640z m52 2589 c10 -8
13 -18 9 -26 -6 -9 -13 -5 -25 13 -18 28 -11 33 16 13z m90 -29 c2 -29 -2 -47
-12 -54 -12 -10 -8 -14 22 -27 43 -18 48 -24 41 -60 -5 -27 -27 -33 -29 -9 -1
7 -3 15 -4 20 -1 4 -2 10 -1 14 0 4 -6 5 -15 1 -8 -3 -25 -1 -37 5 -12 6 -31
12 -42 14 -25 4 -27 31 -2 36 11 2 17 -3 17 -13 0 -15 2 -15 16 -4 13 10 13
14 3 18 -32 10 -37 27 -18 52 10 13 19 30 19 37 0 6 9 12 19 12 16 0 20 -8 23
-42z m-42 -158 c0 -5 -4 -10 -10 -10 -5 0 -10 5 -10 10 0 6 5 10 10 10 6 0 10
-4 10 -10z m164 -35 c3 -9 0 -15 -9 -15 -8 0 -15 7 -15 15 0 8 4 15 9 15 5 0
11 -7 15 -15z m-92 -17 c-17 -17 -15 -30 6 -27 46 4 62 -1 62 -22 0 -17 -3
-19 -13 -10 -8 6 -29 10 -48 9 -38 -1 -93 28 -83 44 4 6 10 6 17 -1 15 -15 27
-14 27 4 0 9 9 15 22 15 17 0 19 -3 10 -12z m18 -89 c0 -18 -2 -19 -15 -9 -8
7 -15 16 -15 21 0 5 7 9 15 9 9 0 15 -9 15 -21z m570 2 c0 -11 -4 -22 -9 -25
-11 -7 -20 14 -13 32 7 19 22 14 22 -7z m47 -23 c-3 -8 -6 -5 -6 6 -1 11 2 17
5 13 3 -3 4 -12 1 -19z m73 2 c0 -5 -4 -10 -10 -10 -5 0 -10 5 -10 10 0 6 5
10 10 10 6 0 10 -4 10 -10z m480 0 c0 -5 -9 -10 -20 -10 -11 0 -20 5 -20 10 0
6 9 10 20 10 11 0 20 -4 20 -10z m230 -26 c0 -8 -4 -14 -10 -14 -5 0 -10 9
-10 21 0 11 5 17 10 14 6 -3 10 -13 10 -21z m330 16 c0 -5 -4 -10 -10 -10 -5
0 -10 5 -10 10 0 6 5 10 10 10 6 0 10 -4 10 -10z m-660 -20 c0 -5 -9 -10 -20
-10 -11 0 -20 5 -20 10 0 6 9 10 20 10 11 0 20 -4 20 -10z m-703 -16 c-3 -3
-12 -4 -19 -1 -8 3 -5 6 6 6 11 1 17 -2 13 -5z m503 -3 c0 -6 -4 -13 -10 -16
-5 -3 -10 1 -10 9 0 9 5 16 10 16 6 0 10 -4 10 -9z m340 -21 c0 -23 -18 -36
-32 -22 -6 6 -5 17 3 30 15 24 29 20 29 -8z m-714 9 c10 -17 -13 -36 -27 -22
-12 12 -4 33 11 33 5 0 12 -5 16 -11z m34 -9 c0 -5 -2 -10 -4 -10 -3 0 -8 5
-11 10 -3 6 -1 10 4 10 6 0 11 -4 11 -10z m1060 -11 c0 -5 -4 -9 -10 -9 -5 0
-10 7 -10 16 0 8 5 12 10 9 6 -3 10 -10 10 -16z m-1026 -4 c3 -8 1 -15 -4 -15
-6 0 -10 7 -10 15 0 8 2 15 4 15 2 0 6 -7 10 -15z m1178 -14 c17 -17 15 -17
-43 -15 -66 3 -74 6 -66 26 7 19 85 10 109 -11z m-732 3 c0 -11 -5 -14 -16
-10 -9 3 -18 6 -20 6 -3 0 -2 5 1 10 10 16 35 12 35 -6z m-674 -16 c-3 -13 -6
-30 -6 -37 0 -22 -16 -1 -24 32 -5 23 -3 27 15 27 17 0 20 -4 15 -22z m2166
10 c-9 -9 -15 -9 -24 0 -9 9 -7 12 12 12 19 0 21 -3 12 -12z m-152 -14 c0 -2
-12 -4 -27 -4 -21 0 -24 3 -14 9 13 8 41 5 41 -5z m-1743 -26 c-3 -7 -5 -2 -5
12 0 14 2 19 5 13 2 -7 2 -19 0 -25z m1270 26 c-3 -3 -12 -4 -19 -1 -8 3 -5 6
6 6 11 1 17 -2 13 -5z m-162 -14 c3 -5 -3 -10 -15 -10 -12 0 -18 5 -15 10 3 6
10 10 15 10 5 0 12 -4 15 -10z m-101 -9 c7 -11 -14 -20 -31 -13 -7 2 -10 8 -7
13 7 12 31 12 38 0z m-124 -26 c0 -8 -7 -15 -15 -15 -26 0 -18 20 13 29 1 1 2
-6 2 -14z m290 0 c0 -8 -4 -15 -10 -15 -5 0 -10 7 -10 15 0 8 5 15 10 15 6 0
10 -7 10 -15z m325 4 c3 -4 1 -10 -4 -14 -13 -8 -92 6 -86 15 6 10 84 9 90 -1z
m475 -3 c0 -7 10 -17 23 -21 20 -6 20 -8 3 -12 -10 -3 -21 -1 -25 4 -3 5 -14
12 -24 16 -10 4 -15 11 -12 17 9 15 35 12 35 -4z m130 7 c0 -5 -7 -16 -14 -25
-18 -24 -46 -23 -46 2 0 23 10 26 28 8 9 -9 12 -8 12 5 0 9 5 17 10 17 6 0 10
-3 10 -7z m-1352 -26 c3 -13 -4 -17 -25 -16 -15 0 -22 3 -15 6 6 2 12 11 12
20 0 20 24 11 28 -10z m372 9 c0 -7 -12 -16 -27 -19 l-28 -5 24 19 c28 23 31
23 31 5z m100 -12 c0 -8 -4 -14 -10 -14 -5 0 -10 9 -10 21 0 11 5 17 10 14 6
-3 10 -13 10 -21z m460 -4 c0 -5 -7 -10 -16 -10 -8 0 -12 5 -9 10 3 6 10 10
16 10 5 0 9 -4 9 -10z m-257 -7 c-7 -2 -19 -2 -25 0 -7 3 -2 5 12 5 14 0 19
-2 13 -5z m-1803 -7 c0 -3 -4 -8 -10 -11 -5 -3 -10 -1 -10 4 0 6 5 11 10 11 6
0 10 -2 10 -4z m1685 -17 c10 -29 -1 -35 -25 -14 -16 14 -17 20 -8 27 20 12
26 10 33 -13z m295 11 c0 -5 -4 -10 -9 -10 -6 0 -13 5 -16 10 -3 6 1 10 9 10
9 0 16 -4 16 -10z m333 -1 c-6 -6 -9 -18 -5 -27 4 -12 1 -14 -12 -9 -10 4 -20
7 -24 7 -9 0 32 39 43 39 5 1 4 -4 -2 -10z m-1183 -27 c0 -15 -2 -15 -10 -2
-13 20 -13 33 0 25 6 -3 10 -14 10 -23z m1050 18 c0 -5 -7 -10 -15 -10 -8 0
-15 5 -15 10 0 6 7 10 15 10 8 0 15 -4 15 -10z m-443 -22 c-3 -8 -6 -5 -6 6
-1 11 2 17 5 13 3 -3 4 -12 1 -19z m-253 -3 c-4 -8 -10 -12 -15 -9 -14 8 -10
24 6 24 9 0 12 -6 9 -15z m-41 -32 c-7 -2 -19 -2 -25 0 -7 3 -2 5 12 5 14 0
19 -2 13 -5z m857 -13 c0 -5 -4 -10 -10 -10 -5 0 -10 5 -10 10 0 6 5 10 10 10
6 0 10 -4 10 -10z m260 -6 c0 -8 -5 -12 -10 -9 -6 4 -8 11 -5 16 9 14 15 11
15 -7z m-155 -4 c-3 -5 -10 -10 -16 -10 -5 0 -9 5 -9 10 0 6 7 10 16 10 8 0
12 -4 9 -10z m-308 -52 c-3 -8 -6 -5 -6 6 -1 11 2 17 5 13 3 -3 4 -12 1 -19z
m263 -38 c0 -5 -4 -10 -10 -10 -5 0 -10 5 -10 10 0 6 5 10 10 10 6 0 10 -4 10
-10z m-1073 -56 c-3 -3 -12 -4 -19 -1 -8 3 -5 6 6 6 11 1 17 -2 13 -5z m1101
-179 c-3 -3 -9 2 -12 12 -6 14 -5 15 5 6 7 -7 10 -15 7 -18z m-1018 -2470 c0
-8 -9 -19 -20 -25 -17 -9 -20 -8 -20 9 0 17 11 28 33 30 4 1 7 -6 7 -14z
m-340 -130 c-6 -7 -18 -11 -26 -8 -10 4 -12 0 -8 -11 6 -17 -39 -69 -50 -58
-3 3 -6 0 -6 -6 0 -7 6 -12 12 -12 7 0 2 -7 -10 -16 -12 -8 -22 -21 -22 -29 0
-8 -9 -19 -20 -25 -29 -15 -70 -56 -70 -69 0 -20 -17 -12 -23 11 -7 26 16 59
101 148 31 32 68 72 81 88 21 26 26 28 39 16 11 -11 11 -18 2 -29z m-244 -290
c-9 -9 -16 -13 -16 -8 0 12 22 34 28 28 2 -2 -3 -11 -12 -20z m-38 -37 c2 -19
-2 -28 -16 -32 -11 -4 -23 -18 -26 -31 -4 -14 -13 -25 -21 -25 -9 0 -15 -10
-15 -25 0 -14 -8 -29 -19 -34 -10 -6 -21 -21 -25 -33 -6 -26 -42 -68 -71 -84
-11 -6 -26 -23 -33 -37 -7 -15 -21 -27 -32 -27 -10 0 -21 -6 -23 -12 -4 -10
-8 -10 -15 1 -14 20 13 66 76 130 29 31 63 70 75 86 12 17 39 48 59 70 21 22
38 43 38 48 0 13 24 36 35 33 6 -1 11 -14 13 -28z m-324 -391 c-8 -53 -31 -64
-31 -15 0 27 25 74 34 64 2 -1 0 -24 -3 -49z m-99 -117 c-3 -5 -14 -10 -23
-10 -15 0 -15 2 -2 10 20 13 33 13 25 0z m-46 -38 c5 -10 6 -24 1 -31 -6 -11
-10 -9 -19 5 -11 17 -12 15 -8 -12 2 -25 0 -30 -13 -27 -9 2 -24 -5 -34 -16
-11 -12 -14 -21 -8 -21 21 0 13 -19 -10 -22 -15 -2 -24 -13 -31 -37 -5 -21
-11 -30 -16 -23 -5 9 -14 5 -29 -13 -12 -14 -22 -30 -22 -35 0 -6 -8 -10 -17
-10 -9 0 -13 -3 -10 -7 11 -10 -51 -43 -68 -37 -10 4 -15 0 -15 -10 0 -9 -4
-16 -10 -16 -5 0 -10 -8 -10 -19 0 -10 -7 -24 -16 -32 -13 -10 -17 -10 -25 2
-6 10 1 23 26 46 19 18 35 37 35 44 0 8 4 8 15 -1 12 -10 15 -9 15 7 0 11 10
29 23 40 12 11 31 32 41 47 10 14 26 25 35 24 9 -2 20 7 26 20 5 12 19 22 30
22 15 0 17 3 7 9 -11 6 -6 16 21 42 19 19 39 44 46 57 14 27 27 28 40 4z m831
-7 c0 -8 -4 -15 -10 -15 -5 0 -7 7 -4 15 4 8 8 15 10 15 2 0 4 -7 4 -15z m-74
-152 c-10 -10 -19 5 -10 18 6 11 8 11 12 0 2 -7 1 -15 -2 -18z m-90 -98 c-6
-28 -4 -35 9 -35 29 0 12 -33 -23 -44 -12 -4 -20 -11 -17 -16 3 -5 1 -11 -4
-15 -6 -3 -8 -12 -5 -20 4 -8 -6 -20 -24 -29 -24 -12 -29 -20 -25 -37 5 -17 3
-21 -9 -16 -9 3 -21 0 -27 -6 -22 -22 -23 3 -2 46 11 24 21 51 21 60 0 11 8
17 25 17 14 0 25 6 25 13 0 21 30 77 41 77 5 0 9 9 9 20 0 11 3 20 6 20 3 0 3
-16 0 -35z m-76 -25 c0 -5 -5 -10 -11 -10 -5 0 -7 5 -4 10 3 6 8 10 11 10 2 0
4 -4 4 -10z m0 -50 c0 -5 -5 -10 -11 -10 -5 0 -7 5 -4 10 3 6 8 10 11 10 2 0
4 -4 4 -10z m-972 -64 c-16 -5 -27 -15 -27 -20 3 -29 -2 -46 -16 -46 -8 0 -15
-7 -15 -16 0 -8 -4 -13 -9 -10 -4 3 -13 -6 -20 -20 -6 -14 -16 -22 -21 -19
-15 9 21 65 48 76 13 5 22 15 19 22 -7 19 32 57 52 49 13 -5 10 -8 -11 -16z
m932 -135 c0 -12 -54 -51 -69 -51 -17 0 -13 21 7 41 18 19 62 26 62 10z
m-1091 -88 c-8 -10 -23 -27 -35 -39 -12 -11 -24 -27 -27 -35 -5 -12 -7 -12
-16 1 -8 11 -7 16 4 18 9 2 13 7 10 12 -7 11 44 60 63 60 12 0 12 -3 1 -17z
m1026 7 c3 -5 1 -10 -4 -10 -6 0 -11 5 -11 10 0 6 2 10 4 10 3 0 8 -4 11 -10z
m-20 -60 c-3 -5 -10 -10 -16 -10 -5 0 -9 5 -9 10 0 6 7 10 16 10 8 0 12 -4 9
-10z m197 -370 c-6 -15 -11 -19 -16 -12 -4 7 -1 18 6 26 17 19 20 14 10 -14z"/>
<path d="M945 1530 c-3 -5 -1 -10 4 -10 6 0 11 5 11 10 0 6 -2 10 -4 10 -3 0
-8 -4 -11 -10z"/>
<path d="M350 5705 c0 -8 5 -15 10 -15 6 0 10 7 10 15 0 8 -4 15 -10 15 -5 0
-10 -7 -10 -15z"/>
<path d="M177 5703 c-13 -12 -7 -23 13 -23 11 0 20 7 20 15 0 15 -21 21 -33 8z"/>
<path d="M408 5683 c6 -2 18 -2 25 0 6 3 1 5 -13 5 -14 0 -19 -2 -12 -5z"/>
<path d="M2100 5636 c0 -9 5 -16 10 -16 6 0 10 4 10 9 0 6 -4 13 -10 16 -5 3
-10 -1 -10 -9z"/>
<path d="M240 5575 c0 -16 16 -20 24 -6 3 5 -1 11 -9 15 -9 3 -15 0 -15 -9z"/>
<path d="M960 5559 c0 -5 5 -7 10 -4 6 3 10 8 10 11 0 2 -4 4 -10 4 -5 0 -10
-5 -10 -11z"/>
<path d="M1040 5560 c0 -5 5 -10 10 -10 6 0 10 5 10 10 0 6 -4 10 -10 10 -5 0
-10 -4 -10 -10z"/>
<path d="M1017 5520 c2 -23 0 -40 -6 -40 -6 0 -19 -10 -31 -22 -17 -18 -20
-19 -20 -5 0 13 -9 17 -40 17 -35 0 -40 3 -40 23 0 18 -2 19 -10 7 -12 -19
-12 -21 4 -43 18 -23 128 -42 156 -27 22 12 28 76 10 111 -17 31 -27 22 -23
-21z m23 -65 c0 -8 -4 -15 -10 -15 -5 0 -10 7 -10 15 0 8 5 15 10 15 6 0 10
-7 10 -15z"/>
<path d="M1115 5540 c-4 -6 3 -10 14 -10 25 0 27 6 6 13 -8 4 -17 2 -20 -3z"/>
<path d="M1636 5535 c-3 -8 1 -20 8 -27 7 -7 20 -25 30 -40 17 -26 17 -26 -3
-21 -12 3 -21 1 -21 -6 0 -14 106 -15 115 -1 3 5 1 18 -4 27 -6 10 -11 12 -11
6 0 -22 -34 -14 -60 14 -14 14 -26 30 -26 35 -1 4 -2 13 -3 18 -2 15 -18 12
-25 -5z"/>
<path d="M595 5530 c-3 -5 1 -10 10 -10 9 0 13 5 10 10 -3 6 -8 10 -10 10 -2
0 -7 -4 -10 -10z"/>
<path d="M1535 5530 c-3 -5 -1 -10 4 -10 6 0 11 5 11 10 0 6 -2 10 -4 10 -3 0
-8 -4 -11 -10z"/>
<path d="M1732 5524 c-13 -6 -20 -14 -15 -17 8 -5 50 20 42 26 -2 2 -15 -2
-27 -9z"/>
<path d="M678 5513 c7 -3 16 -2 19 1 4 3 -2 6 -13 5 -11 0 -14 -3 -6 -6z"/>
<path d="M1135 5509 c-8 -12 -9 -11 28 -27 19 -8 27 -18 23 -27 -3 -8 -1 -15
4 -15 19 0 10 42 -12 61 -27 21 -34 23 -43 8z"/>
<path d="M1565 5510 c3 -5 8 -10 11 -10 2 0 4 5 4 10 0 6 -5 10 -11 10 -5 0
-7 -4 -4 -10z"/>
<path d="M1860 5506 c0 -8 -4 -16 -9 -18 -4 -1 -11 -14 -15 -28 -3 -14 -3 -19
0 -12 3 7 23 22 45 32 47 24 50 40 9 40 -19 0 -30 -5 -30 -14z"/>
<path d="M3026 5511 c-4 -7 -5 -15 -2 -18 9 -9 19 4 14 18 -4 11 -6 11 -12 0z"/>
<path d="M1271 5486 c-8 -9 -11 -19 -7 -23 9 -9 29 13 24 27 -2 8 -8 7 -17 -4z"/>
<path d="M1513 5465 c-8 -22 6 -33 17 -15 13 20 12 30 0 30 -6 0 -13 -7 -17
-15z"/>
<path d="M2370 5470 c0 -5 9 -14 19 -19 16 -9 18 -8 14 9 -5 20 -33 29 -33 10z"/>
<path d="M1900 5455 c0 -8 5 -15 10 -15 6 0 10 7 10 15 0 8 -4 15 -10 15 -5 0
-10 -7 -10 -15z"/>
<path d="M2312 5450 c-7 -11 -8 -20 -3 -20 9 0 24 30 18 36 -1 2 -8 -6 -15
-16z"/>
<path d="M2960 5454 c0 -8 5 -12 10 -9 6 4 8 11 5 16 -9 14 -15 11 -15 -7z"/>
<path d="M3000 5460 c0 -5 7 -10 15 -10 8 0 15 5 15 10 0 6 -7 10 -15 10 -8 0
-15 -4 -15 -10z"/>
<path d="M1105 5450 c-8 -13 9 -20 24 -11 10 6 9 10 -3 14 -8 3 -18 2 -21 -3z"/>
<path d="M1315 5450 c-3 -5 -3 -10 2 -10 4 0 18 -3 31 -6 13 -4 22 -2 22 5 0
5 -7 8 -15 5 -8 -4 -15 -1 -15 5 0 14 -17 14 -25 1z"/>
<path d="M1546 5445 c-4 -11 2 -15 24 -15 16 0 32 5 36 12 4 7 3 8 -4 4 -7 -4
-12 -2 -12 3 0 17 -37 13 -44 -4z"/>
<path d="M2200 5450 c-12 -8 -11 -10 6 -10 12 0 37 -2 55 -5 33 -6 33 -6 -6 9
-22 9 -40 16 -40 16 0 0 -7 -5 -15 -10z"/>
<path d="M3066 5444 c-4 -9 -4 -19 -1 -22 7 -8 35 19 29 29 -8 14 -21 11 -28
-7z"/>
<path d="M2045 5431 c19 -13 33 -17 39 -11 13 13 6 19 -35 26 l-34 6 30 -21z"/>
<path d="M506 5424 c-8 -20 -8 -21 27 -29 17 -5 27 -3 27 4 0 6 -7 11 -15 11
-21 0 -19 18 3 23 11 3 8 5 -9 6 -17 1 -29 -5 -33 -15z"/>
<path d="M640 5430 c0 -5 7 -7 15 -4 8 4 15 8 15 10 0 2 -7 4 -15 4 -8 0 -15
-4 -15 -10z"/>
<path d="M1262 5428 c3 -7 14 -14 26 -16 16 -3 20 1 16 12 -7 19 -48 22 -42 4z"/>
<path d="M2656 5422 c-9 -16 10 -23 39 -16 15 4 25 2 25 -5 0 -6 9 -11 20 -11
30 0 24 17 -7 24 -16 3 -38 8 -49 12 -12 3 -25 1 -28 -4z"/>
<path d="M3133 5412 c-8 -14 -7 -22 2 -36 12 -16 14 -16 20 3 3 11 2 27 -2 36
-7 12 -10 12 -20 -3z"/>
<path d="M1051 5411 c-17 -11 -7 -41 13 -41 22 0 30 20 15 36 -9 8 -19 10 -28
5z"/>
<path d="M1600 5410 c0 -5 7 -10 15 -10 8 0 15 5 15 10 0 6 -7 10 -15 10 -8 0
-15 -4 -15 -10z"/>
<path d="M2925 5410 c4 -6 11 -8 16 -5 14 9 11 15 -7 15 -8 0 -12 -5 -9 -10z"/>
<path d="M2000 5401 c0 -10 50 -25 58 -17 2 3 -7 10 -22 16 -33 12 -36 12 -36
1z"/>
<path d="M2255 5401 c-7 -12 12 -24 25 -16 11 7 4 25 -10 25 -5 0 -11 -4 -15
-9z"/>
<path d="M1675 5391 c-3 -5 -1 -12 4 -15 12 -8 41 3 41 15 0 12 -37 12 -45 0z"/>
<path d="M980 5375 c0 -8 9 -15 20 -15 11 0 20 7 20 15 0 8 -9 15 -20 15 -11
0 -20 -7 -20 -15z"/>
<path d="M2100 5376 c0 -9 7 -16 16 -16 17 0 14 22 -4 28 -7 2 -12 -3 -12 -12z"/>
<path d="M2997 5383 c-13 -12 -7 -23 13 -23 13 0 18 5 14 15 -7 16 -17 19 -27
8z"/>
<path d="M3051 5381 c-7 -5 -12 -13 -10 -19 2 -6 14 -2 28 9 23 19 9 27 -18
10z"/>
<path d="M2495 5370 c-3 -5 3 -10 15 -10 12 0 18 5 15 10 -3 6 -10 10 -15 10
-5 0 -12 -4 -15 -10z"/>
<path d="M2648 5363 c7 -3 16 -2 19 1 4 3 -2 6 -13 5 -11 0 -14 -3 -6 -6z"/>
<path d="M3117 5346 c5 -23 2 -24 -36 -23 -22 1 -41 5 -41 10 0 4 -7 7 -15 7
-8 0 -15 -9 -15 -20 0 -13 7 -20 20 -20 11 0 20 -4 20 -10 0 -5 -20 -10 -45
-10 -25 0 -45 5 -45 11 0 5 -5 7 -11 3 -18 -11 11 -24 54 -24 34 0 37 -2 37
-30 0 -28 -2 -30 -40 -30 -25 0 -40 -5 -40 -12 0 -13 55 -17 67 -5 3 4 17 7
29 7 17 0 22 -4 18 -15 -4 -8 -1 -15 6 -15 7 0 11 19 10 58 -2 80 -2 85 13 80
6 -3 20 3 30 12 16 16 16 18 -2 34 -18 16 -18 16 -14 -8z"/>
<path d="M2320 5351 c0 -6 -19 -12 -42 -14 l-43 -4 43 -1 c35 -2 42 -5 42 -22
0 -17 -7 -20 -40 -20 -22 0 -40 -4 -40 -10 0 -18 70 -11 91 9 17 16 18 19 4
31 -14 11 -13 14 2 26 17 13 17 13 1 14 -10 0 -18 -4 -18 -9z"/>
<path d="M2755 5340 c-17 -7 -15 -9 13 -9 17 -1 32 4 32 9 0 12 -17 12 -45 0z"/>
<path d="M2190 5295 c0 -8 7 -15 15 -15 9 0 12 6 9 15 -4 8 -10 15 -15 15 -5
0 -9 -7 -9 -15z"/>
<path d="M2010 5270 c19 -13 30 -13 30 0 0 6 -10 10 -22 10 -19 0 -20 -2 -8
-10z"/>
<path d="M2880 5235 c0 -11 11 -15 40 -15 29 0 40 4 40 15 0 11 -11 15 -40 15
-29 0 -40 -4 -40 -15z"/>
<path d="M4740 3754 c0 -5 7 -31 15 -58 8 -27 15 -64 15 -82 0 -18 4 -35 9
-38 5 -4 12 -25 16 -48 4 -23 13 -48 20 -55 7 -7 16 -41 20 -75 4 -34 14 -73
22 -85 8 -12 12 -27 8 -33 -3 -5 -2 -10 2 -10 5 0 16 -15 26 -33 16 -29 22
-33 54 -30 30 2 42 -3 70 -33 24 -25 33 -31 33 -19 0 12 6 16 20 12 24 -6 38
11 16 19 -9 3 -13 10 -10 15 7 11 -37 70 -48 63 -4 -3 -13 6 -20 20 -6 14 -14
26 -18 26 -4 0 -15 21 -25 48 -10 26 -26 56 -36 67 -10 11 -23 42 -29 70 -6
27 -15 52 -19 55 -4 3 -20 31 -35 62 -15 31 -34 62 -42 69 -8 6 -14 17 -14 23
0 7 -11 23 -25 36 -14 13 -25 19 -25 14z"/>
<path d="M6681 3713 c-58 -2 -111 -9 -118 -15 -15 -12 -8 -44 13 -66 18 -17
93 -21 125 -6 13 6 38 18 54 25 39 18 55 34 55 53 0 9 -6 15 -12 14 -7 -1 -60
-4 -117 -5z"/>
<path d="M4190 3570 c-23 -5 -23 -7 -6 -13 11 -4 24 -3 30 3 14 14 5 18 -24
10z"/>
<path d="M4180 3530 c0 -5 -6 -10 -12 -10 -15 -1 -121 -134 -126 -158 -2 -9
-8 -21 -13 -26 -5 -6 -9 -18 -9 -28 0 -10 -7 -18 -17 -18 -14 0 -15 -2 -5 -9
11 -6 8 -15 -15 -38 -26 -27 -51 -98 -56 -160 -1 -13 -5 -23 -9 -23 -5 0 -8
-9 -8 -20 0 -11 -5 -20 -11 -20 -5 0 -7 -4 -4 -10 22 -35 61 12 81 95 6 26 28
67 81 151 11 17 50 96 74 149 5 11 22 43 38 70 33 55 36 65 21 65 -5 0 -10 -4
-10 -10z"/>
<path d="M3815 3363 c-55 -14 -145 -28 -230 -34 -94 -7 -148 -15 -163 -25 -13
-9 -21 -18 -18 -21 3 -3 0 -17 -7 -32 -14 -29 -15 -50 -4 -67 4 -7 -4 -14 -23
-18 -22 -4 -30 -11 -30 -26 0 -37 -39 -58 -117 -61 -14 -1 -20 -6 -16 -15 3
-8 -1 -22 -8 -31 -12 -14 -12 -16 0 -9 9 6 12 5 9 -4 -2 -7 -24 -20 -48 -29
-24 -9 -42 -20 -41 -24 1 -5 -12 -22 -29 -37 -29 -26 -34 -60 -7 -43 7 4 6 -1
-2 -10 -8 -10 -11 -20 -8 -23 3 -3 -8 -19 -25 -34 -19 -19 -28 -35 -24 -45 7
-19 -14 -55 -31 -55 -7 0 -13 -4 -13 -10 0 -5 7 -10 16 -10 10 0 14 -6 11 -15
-4 -8 -2 -17 3 -20 6 -4 10 -2 10 4 0 12 43 10 51 -2 8 -12 82 1 74 13 -3 4
-16 7 -30 5 -19 -2 -23 1 -15 10 6 7 22 10 36 7 23 -4 24 -2 18 22 -5 20 -2
26 10 26 10 0 16 9 16 25 0 19 7 26 33 33 51 14 80 -20 32 -38 -34 -13 -32
-22 3 -14 27 7 27 7 8 -14 -10 -12 -22 -20 -26 -17 -3 2 -13 -5 -20 -16 -8
-10 -20 -19 -27 -19 -6 0 -14 -4 -17 -9 -3 -5 5 -8 19 -8 13 0 26 6 29 13 9
25 25 15 22 -13 -2 -16 -4 -36 -5 -45 -1 -22 -21 -24 -21 -2 0 11 -5 14 -16
10 -9 -3 -21 -3 -27 1 -7 4 -2 10 13 14 l25 7 -27 1 c-34 1 -45 -15 -18 -29
23 -12 16 -35 -8 -25 -8 3 -19 0 -24 -7 -6 -11 -8 -10 -8 0 0 15 -29 47 -36
40 -2 -3 2 -11 11 -18 35 -29 14 -47 -62 -52 -30 -2 -43 -8 -43 -18 -1 -11 -4
-10 -16 5 -14 19 -15 17 -9 -25 l6 -45 -15 30 c-13 27 -14 28 -15 8 -1 -13 -6
-23 -12 -23 -6 0 -8 -9 -4 -20 8 -25 -3 -26 -22 -2 -8 9 -12 12 -9 6 3 -6 -6
-16 -19 -22 -14 -7 -25 -16 -25 -22 0 -6 12 -3 26 6 16 11 28 14 32 7 4 -5 14
-13 22 -16 11 -4 11 -6 -4 -6 -12 -1 -16 -6 -12 -16 3 -8 1 -15 -5 -15 -5 0
-14 -11 -19 -25 -5 -14 -17 -28 -25 -31 -8 -4 -15 -14 -16 -23 0 -10 -2 -11
-6 -3 -5 13 -24 17 -22 5 3 -20 -2 -26 -11 -13 -8 13 -10 12 -10 -3 0 -20 -37
-56 -57 -57 -7 0 -13 -8 -13 -17 0 -15 2 -16 10 -3 7 10 12 12 18 4 4 -6 17
-14 29 -18 18 -6 22 -4 17 8 -5 12 4 17 36 22 28 5 37 10 28 15 -10 7 -8 9 7
10 11 0 34 9 50 20 17 11 38 22 48 25 9 4 17 10 17 14 0 5 10 12 23 15 12 4
32 18 43 31 12 14 26 24 30 23 21 -4 34 2 34 15 0 13 27 31 43 28 4 -1 7 5 7
13 0 8 7 15 16 15 21 0 54 -18 54 -30 0 -18 -35 -51 -77 -71 -24 -12 -43 -25
-43 -30 0 -5 -6 -8 -12 -6 -7 1 -12 -4 -11 -10 2 -7 -5 -13 -15 -13 -28 -1
-55 -27 -48 -46 5 -14 4 -15 -9 -4 -12 10 -15 9 -15 -5 0 -13 -3 -15 -13 -7
-10 8 -19 2 -37 -29 -14 -21 -29 -37 -35 -36 -5 2 -17 -7 -26 -20 -9 -14 -19
-24 -23 -24 -6 1 -34 -21 -83 -66 -14 -12 -22 -27 -18 -32 3 -6 1 -11 -6 -11
-6 0 -22 -11 -35 -25 -13 -14 -26 -25 -29 -25 -13 0 -36 -30 -31 -39 3 -5 -1
-11 -9 -15 -8 -3 -15 -11 -15 -18 0 -8 -13 -28 -29 -46 -17 -17 -25 -32 -20
-32 6 0 -3 -11 -18 -25 -22 -19 -24 -24 -8 -19 18 6 18 5 -2 -15 -13 -12 -23
-27 -23 -33 0 -7 -10 -22 -21 -34 -13 -14 -23 -41 -26 -69 -5 -37 -8 -43 -20
-34 -11 10 -12 9 -7 -5 3 -9 14 -16 23 -16 12 0 13 -2 3 -8 -14 -9 -6 -42 10
-42 5 0 6 5 3 10 -3 6 1 10 10 10 11 0 15 5 11 15 -3 8 -2 15 3 15 5 0 12 -10
16 -22 6 -19 8 -20 12 -6 2 9 -1 26 -7 37 -7 14 -7 21 0 21 5 0 10 -6 10 -14
0 -7 7 -19 15 -26 12 -10 15 -10 15 0 0 10 3 10 16 -1 13 -11 14 -9 9 17 -4
16 -9 35 -11 42 -2 8 2 12 8 10 7 -3 14 -17 16 -31 2 -15 8 -25 13 -22 5 4 3
21 -6 42 -20 47 -19 50 4 22 19 -24 20 -24 34 -4 9 11 13 24 10 28 -3 5 3 15
13 22 17 13 17 14 2 15 -11 0 -15 6 -11 21 4 14 9 17 16 10 17 -17 33 -13 45
12 l11 22 0 -23 c1 -14 6 -22 14 -19 6 2 11 11 11 20 -1 9 4 13 12 10 8 -3 14
-3 14 1 0 3 -15 10 -32 15 -31 9 -31 9 -7 10 20 1 28 8 33 27 4 16 17 29 37
36 19 6 26 13 19 18 -8 5 -6 10 5 20 8 7 15 19 15 27 0 13 2 13 17 2 15 -13
16 -11 11 14 -3 15 -1 27 3 27 5 0 9 7 9 15 0 9 7 18 16 22 12 4 13 7 3 14
-11 6 -10 9 4 15 9 3 17 13 17 21 0 8 4 12 9 9 14 -9 41 4 41 20 0 8 -4 14
-10 14 -5 0 4 13 20 29 32 30 40 57 14 47 -8 -3 -12 -2 -9 4 3 6 13 10 21 10
8 0 14 5 14 10 0 6 7 10 15 10 8 0 15 8 15 18 1 15 2 15 15 -2 8 -11 15 -14
15 -8 0 7 8 12 17 12 13 0 14 3 5 12 -18 18 -15 38 5 31 13 -5 15 -2 10 11 -8
19 8 56 23 56 6 0 10 -10 9 -22 0 -22 -1 -22 -9 -3 -8 19 -9 19 -9 1 -1 -11 6
-28 16 -38 15 -17 15 -18 0 -18 -10 0 -17 -4 -17 -9 0 -5 9 -7 20 -4 16 4 19
2 14 -11 -3 -9 -10 -13 -15 -10 -5 3 -9 -3 -10 -13 0 -10 -2 -29 -5 -43 -3
-16 -1 -20 4 -12 7 10 11 10 20 -1 10 -11 9 -21 -3 -43 -9 -18 -11 -32 -5 -38
14 -14 13 -29 -1 -20 -8 4 -9 -1 -4 -16 5 -15 4 -20 -4 -16 -6 4 -11 2 -11 -3
0 -6 7 -11 15 -11 12 0 13 -4 5 -19 -12 -24 -13 -34 -1 -26 18 10 23 -16 7
-34 -10 -11 -12 -21 -6 -27 12 -12 -6 -74 -22 -74 -6 0 -8 -7 -4 -15 3 -8 1
-15 -4 -15 -15 0 -35 -43 -21 -48 6 -2 11 -12 11 -23 0 -12 -5 -16 -15 -13 -8
4 -15 1 -15 -5 0 -6 7 -11 16 -11 8 0 13 -4 10 -9 -3 -5 1 -14 9 -21 8 -7 12
-16 9 -21 -3 -5 -2 -14 2 -21 25 -40 4 -142 -34 -163 -22 -13 -23 -15 -6 -13
11 2 20 -1 20 -7 -1 -5 -8 -9 -16 -7 -15 2 -40 -39 -40 -66 0 -8 -10 -28 -22
-44 -19 -27 -23 -29 -33 -15 -10 14 -14 12 -29 -15 -13 -21 -21 -26 -26 -18
-5 9 -9 9 -14 1 -4 -6 -12 -9 -17 -6 -9 6 -13 -8 -10 -32 1 -7 -3 -13 -9 -13
-6 0 -16 -14 -22 -31 -7 -20 -13 -27 -18 -19 -8 14 -30 5 -30 -11 0 -6 5 -7
11 -3 8 5 8 1 0 -13 -6 -11 -7 -23 -4 -27 3 -3 1 -6 -5 -6 -7 0 -12 -5 -12
-11 0 -19 -33 -84 -47 -92 -7 -4 -13 -16 -13 -27 0 -12 -8 -20 -22 -22 -13 -2
-22 -7 -21 -13 1 -5 -3 -15 -8 -22 -7 -8 -4 -15 8 -22 17 -9 17 -10 0 -16 -9
-4 -24 -2 -32 5 -12 10 -15 10 -15 0 0 -7 -7 -10 -16 -6 -13 5 -16 0 -12 -29
2 -19 0 -35 -4 -35 -4 0 -8 6 -8 13 0 6 -10 23 -21 37 l-20 25 6 -25 c4 -14
13 -35 21 -47 18 -28 18 -33 -1 -33 -8 0 -15 -5 -15 -12 0 -9 -3 -9 -12 0 -7
7 -17 12 -22 12 -6 0 -5 -5 2 -12 18 -18 14 -35 -10 -42 -18 -4 -20 -8 -10
-18 6 -6 12 -17 12 -22 0 -6 -11 3 -25 19 l-24 30 9 -35 c14 -51 12 -58 -10
-30 -23 29 -27 15 -5 -17 9 -13 11 -24 6 -28 -5 -3 -12 -1 -16 5 -10 16 -25
12 -18 -5 3 -9 -2 -22 -12 -29 -10 -7 -15 -18 -11 -24 4 -7 2 -12 -3 -12 -6 0
-11 6 -11 13 0 8 -3 7 -10 -3 -6 -9 -6 -18 0 -24 12 -12 13 -27 3 -24 -12 4
-83 -40 -83 -51 0 -5 6 -11 13 -14 6 -2 8 -8 4 -13 -4 -5 -12 -2 -17 6 -7 11
-11 11 -24 1 -9 -8 -16 -20 -16 -27 0 -8 -10 -24 -22 -36 -23 -23 -25 -27 -27
-60 0 -9 -9 -19 -18 -21 -17 -4 -17 -5 0 -6 25 -2 21 -19 -11 -39 -18 -11 -27
-24 -25 -37 2 -11 -6 -2 -17 20 -12 24 -18 30 -14 15 3 -14 8 -35 11 -48 3
-14 -1 -30 -13 -43 -11 -13 -18 -33 -16 -52 l2 -32 -17 33 c-9 17 -20 32 -25
32 -10 0 -10 -13 0 -25 5 -6 14 -23 21 -40 l13 -30 -26 24 c-27 26 -48 22 -26
-4 7 -9 10 -19 6 -22 -4 -4 -11 -1 -16 7 -6 10 -7 3 -4 -22 5 -30 3 -37 -12
-41 -11 -2 72 -5 184 -6 l202 -2 0 23 c0 13 9 38 20 56 11 18 20 39 20 46 0 8
7 17 16 20 8 3 13 10 10 14 -3 5 3 26 14 48 10 21 24 50 30 64 5 14 14 32 19
40 18 29 200 406 234 485 22 50 35 95 35 122 -1 43 27 88 97 158 16 17 55 58
87 93 53 58 88 78 88 49 0 -7 -6 -21 -13 -32 -13 -19 -20 -77 -19 -142 3 -115
3 -123 -8 -123 -5 0 -7 -7 -4 -15 4 -9 0 -15 -10 -15 -11 0 -16 -9 -16 -29 0
-16 -5 -31 -11 -33 -12 -4 9 -99 25 -109 14 -11 -4 -30 -23 -24 -15 4 -16 -2
-13 -52 2 -41 9 -64 24 -80 11 -12 17 -26 14 -31 -3 -6 -2 -12 3 -14 7 -2 7
-18 1 -45 -7 -28 -6 -51 0 -69 6 -15 8 -29 5 -32 -3 -3 -5 1 -5 8 0 7 -3 10
-7 6 -7 -7 -13 -38 -14 -70 0 -11 -4 -27 -9 -36 -5 -9 -5 -41 -1 -71 4 -34 3
-75 -5 -108 -6 -30 -7 -54 -2 -57 5 -3 6 -14 3 -25 -6 -19 3 -19 437 -17 l443
3 -3 28 c-2 18 2 29 13 33 12 5 13 9 4 20 -7 8 -9 17 -6 21 4 3 3 11 -2 17
-15 19 -24 96 -11 96 7 0 9 8 5 21 -11 33 -13 89 -4 89 5 0 9 4 9 9 0 5 -7 8
-16 7 -23 -2 -27 36 -6 53 16 13 16 13 0 8 -22 -8 -35 11 -13 19 12 5 13 9 4
20 -9 11 -6 18 12 34 18 14 20 19 9 20 -9 0 -21 -5 -28 -12 -9 -9 -12 -8 -12
5 0 10 11 22 25 27 23 9 24 12 14 32 -6 13 -16 29 -22 36 -16 20 -17 64 -2 76
7 6 18 28 23 48 8 29 7 38 -4 42 -15 6 -11 49 6 71 5 6 11 27 15 48 4 20 14
41 23 46 13 7 14 12 3 24 -10 13 -9 17 5 25 12 7 13 11 5 17 -9 5 -9 10 0 21
9 11 8 14 -2 14 -9 1 -5 8 10 20 13 11 18 20 12 20 -19 0 -12 16 12 28 l22 11
-25 1 -25 0 25 21 c25 21 25 21 2 16 -19 -5 -21 -3 -11 9 6 8 18 14 25 14 8 0
14 4 14 10 0 5 -7 7 -15 4 -8 -4 -15 -1 -15 5 0 6 9 11 19 11 28 0 37 20 9 21
-19 1 -18 3 7 8 18 4 29 13 27 21 -2 7 3 17 10 22 11 8 11 10 0 15 -10 4 -8 9
7 20 12 8 21 23 21 35 0 29 31 89 42 82 6 -4 8 5 3 24 -5 23 0 44 18 79 13 26
22 53 20 60 -2 6 1 14 6 18 6 3 12 16 12 28 1 18 2 19 6 4 5 -18 6 -18 19 2
15 21 11 46 -6 36 -4 -3 -10 2 -14 10 -3 8 -1 15 5 15 6 0 8 7 5 15 -3 9 1 18
9 21 8 4 13 10 10 14 -5 8 10 64 25 92 6 11 6 19 0 23 -6 4 -5 11 3 19 6 8 16
11 21 8 5 -3 6 0 2 7 -4 6 -12 9 -17 6 -5 -4 -9 -1 -9 5 0 6 7 13 16 17 12 4
14 14 10 38 -5 22 -2 35 6 38 10 4 9 6 -1 6 -11 1 -10 5 4 15 11 8 20 26 20
42 0 16 4 35 8 42 5 6 6 16 3 20 -3 5 3 18 14 30 14 14 16 22 7 26 -9 3 -8 7
3 15 8 6 11 11 7 11 -4 0 -3 9 3 21 11 20 11 20 -14 4 -16 -11 -26 -13 -26 -6
0 6 8 15 17 18 15 6 14 7 -3 14 -13 4 -6 7 21 7 31 0 44 6 62 28 12 15 21 30
21 33 -3 13 26 122 34 127 4 3 8 17 8 32 0 16 8 32 20 40 11 7 20 18 20 26 0
7 6 19 14 25 10 9 16 8 26 -4 20 -24 38 -18 75 23 19 20 35 32 35 26 0 -5 -9
-20 -20 -32 -43 -46 -11 -44 34 2 21 23 30 38 24 44 -7 7 -2 14 12 22 16 8 19
14 11 20 -14 8 41 60 65 60 8 0 14 5 14 10 0 15 60 -18 81 -44 17 -21 17 -21
12 7 -10 53 51 137 99 137 51 0 23 43 -40 59 -38 11 -42 14 -36 37 5 19 1 31
-15 46 -12 11 -20 26 -17 34 11 29 -118 9 -190 -29 -77 -41 -144 -89 -163
-116 -11 -15 -35 -32 -53 -38 -18 -5 -32 -15 -31 -21 2 -7 -4 -12 -12 -12 -8
0 -15 -4 -15 -9 0 -4 -46 -23 -102 -40 -57 -18 -121 -39 -143 -46 -50 -17
-139 -23 -185 -15 -23 5 -27 8 -12 9 32 2 27 21 -5 22 -22 1 -23 2 -8 6 11 3
22 8 25 12 3 3 18 11 34 16 16 6 35 20 43 32 15 22 14 22 -29 17 -23 -2 -52
-6 -64 -9 -13 -3 -28 3 -40 16 -17 19 -19 19 -25 2 -3 -10 -16 -18 -30 -19
-84 -3 -90 -4 -87 -21 4 -20 65 -56 83 -49 7 2 21 -4 31 -15 9 -10 24 -19 32
-19 10 0 13 -8 10 -25 -5 -21 -2 -25 13 -20 11 4 19 2 19 -4 0 -6 -6 -11 -14
-11 -34 0 -24 -20 13 -26 50 -8 44 -24 -7 -19 -20 3 -28 2 -17 -1 33 -10 37
-28 7 -35 l-27 -7 30 -1 c19 -1 37 6 48 19 26 31 50 26 45 -9 -2 -17 -1 -28 3
-25 10 6 35 -45 33 -66 -1 -8 -2 -25 -3 -37 0 -12 -9 -24 -18 -26 -15 -4 -14
-5 2 -6 21 -1 34 -41 14 -41 -6 0 -6 -7 0 -19 6 -10 8 -21 5 -24 -8 -8 -17
-120 -18 -222 -1 -67 -5 -93 -16 -102 -13 -11 -12 -12 5 -13 18 -1 18 -2 -4
-14 -16 -9 -20 -15 -12 -21 9 -5 7 -11 -6 -21 -17 -13 -17 -13 2 -14 20 -1 20
-1 1 -15 -11 -8 -14 -15 -8 -15 22 0 12 -16 -15 -27 l-28 -11 30 -2 30 -2 -40
-19 -40 -18 30 -1 c27 -1 28 -2 10 -12 -19 -11 -19 -11 0 -18 16 -6 12 -10
-23 -25 -44 -20 -52 -32 -9 -16 31 12 43 3 19 -15 -16 -12 -16 -13 3 -14 18
-1 18 -2 -4 -14 -18 -10 -20 -15 -10 -19 11 -5 11 -8 -3 -20 -10 -8 -18 -18
-18 -22 0 -4 8 -4 18 -1 10 4 8 -1 -7 -13 -18 -14 -20 -20 -10 -24 11 -4 10
-8 -6 -21 -11 -8 -15 -16 -7 -16 20 0 14 -18 -10 -26 l-23 -8 25 -6 25 -7 -30
-13 c-29 -13 -29 -14 -6 -18 23 -4 23 -4 2 -18 -11 -8 -18 -21 -15 -28 3 -8
-5 -22 -18 -31 l-23 -17 23 5 c12 3 22 3 22 0 0 -3 -10 -14 -22 -24 l-23 -20
25 6 c24 6 24 5 -5 -19 -25 -22 -27 -26 -11 -26 18 0 18 -1 1 -20 -17 -19 -17
-20 1 -20 16 0 16 -2 -4 -16 -14 -10 -21 -22 -18 -31 3 -8 3 -20 -1 -26 -4 -7
-9 -21 -10 -32 -2 -10 -9 -23 -16 -28 -8 -6 -6 -7 6 -3 11 3 17 0 17 -9 0 -8
-5 -15 -11 -15 -5 0 -8 -3 -5 -8 7 -11 -23 -76 -32 -68 -10 11 -9 40 3 49 7 4
6 10 -1 15 -14 10 -17 89 -3 97 8 6 8 10 -2 15 -10 7 -10 12 2 26 8 10 9 15 3
11 -7 -4 -14 -1 -16 6 -7 17 2 38 12 32 5 -3 3 7 -5 22 -16 35 -27 207 -13
221 6 6 7 16 2 23 -4 7 -9 40 -10 73 -7 144 -14 273 -17 296 -2 14 1 31 7 38
6 9 6 16 -2 20 -8 5 -10 87 -7 287 6 433 5 476 -6 518 -6 22 -8 45 -5 52 2 7
8 71 11 141 6 122 36 286 56 310 5 6 6 13 3 16 -3 3 1 22 10 41 8 19 12 38 8
41 -3 3 0 6 6 6 7 0 12 5 12 10 0 12 7 13 -105 -17z m-528 -365 c-3 -8 -6 -5
-6 6 -1 11 2 17 5 13 3 -3 4 -12 1 -19z m-16 -126 c-6 -2 -11 -10 -11 -17 0
-11 -28 -24 -52 -25 -17 0 -7 28 15 43 19 14 20 16 4 16 -11 1 -17 7 -14 14 2
6 14 11 26 10 13 -2 25 4 29 15 5 12 8 8 10 -18 2 -19 -1 -36 -7 -38z m-76 19
c-3 -6 -11 -11 -17 -11 -6 0 -6 6 2 15 14 17 26 13 15 -4z m885 -111 c0 -5 -4
-10 -10 -10 -5 0 -10 5 -10 10 0 6 5 10 10 10 6 0 10 -4 10 -10z m-1030 -70
c0 -5 -4 -10 -10 -10 -5 0 -10 5 -10 10 0 6 5 10 10 10 6 0 10 -4 10 -10z
m170 -171 c0 -5 -4 -9 -10 -9 -5 0 -10 7 -10 16 0 8 5 12 10 9 6 -3 10 -10 10
-16z m-150 1 c0 -5 -5 -10 -11 -10 -5 0 -7 5 -4 10 3 6 8 10 11 10 2 0 4 -4 4
-10z m47 4 c-3 -3 -12 -4 -19 -1 -8 3 -5 6 6 6 11 1 17 -2 13 -5z m-132 -74
c-3 -5 -11 -10 -16 -10 -6 0 -7 5 -4 10 3 6 11 10 16 10 6 0 7 -4 4 -10z
m1469 -49 c15 -16 16 -25 6 -61 -6 -23 -14 -40 -16 -37 -3 3 -17 -1 -31 -8
-32 -17 -51 -10 -49 18 1 16 7 21 24 20 26 -3 29 12 5 26 -10 5 -14 13 -10 17
5 5 12 3 16 -4 6 -10 10 -10 20 2 9 11 9 15 0 18 -13 4 -4 28 10 28 4 0 16 -9
25 -19z m-1254 -71 c0 -5 -2 -10 -4 -10 -3 0 -8 5 -11 10 -3 6 -1 10 4 10 6 0
11 -4 11 -10z m-66 -106 c3 -8 2 -12 -4 -9 -6 3 -10 10 -10 16 0 14 7 11 14
-7z m-344 -4 c0 -5 -2 -10 -4 -10 -3 0 -8 5 -11 10 -3 6 -1 10 4 10 6 0 11 -4
11 -10z m-233 -612 c-3 -8 -6 -5 -6 6 -1 11 2 17 5 13 3 -3 4 -12 1 -19z m-17
-28 c0 -5 -4 -10 -10 -10 -5 0 -10 5 -10 10 0 6 5 10 10 10 6 0 10 -4 10 -10z
m180 -760 c-18 -11 -22 -7 -14 14 5 13 10 14 18 6 8 -8 7 -13 -4 -20z m404
-35 c-4 -8 -8 -15 -10 -15 -2 0 -4 7 -4 15 0 8 4 15 10 15 5 0 7 -7 4 -15z
m-434 -45 c0 -5 -2 -10 -4 -10 -3 0 -8 5 -11 10 -3 6 -1 10 4 10 6 0 11 -4 11
-10z m-52 -103 c2 -10 -3 -17 -12 -17 -10 0 -16 9 -16 21 0 24 23 21 28 -4z
m-68 -70 c0 -5 -4 -5 -10 -2 -5 3 -10 14 -10 23 0 15 2 15 10 2 5 -8 10 -19
10 -23z m-100 -107 c0 -5 -5 -10 -11 -10 -5 0 -7 5 -4 10 3 6 8 10 11 10 2 0
4 -4 4 -10z m657 -52 c-3 -8 -6 -5 -6 6 -1 11 2 17 5 13 3 -3 4 -12 1 -19z
m-713 -43 c3 -8 1 -15 -4 -15 -6 0 -10 7 -10 15 0 8 2 15 4 15 2 0 6 -7 10
-15z m-69 -85 c-10 -11 -21 -18 -23 -15 -3 3 3 12 14 20 27 20 30 18 9 -5z
m47 -8 c-13 -4 -65 -52 -57 -52 4 0 16 5 28 12 20 10 21 10 8 -5 -7 -10 -20
-17 -27 -17 -8 0 -14 -4 -14 -8 0 -5 -7 -9 -15 -9 -9 0 -15 7 -13 16 1 9 -1
22 -6 30 -7 10 -4 12 13 6 20 -6 30 -1 69 35 10 9 19 12 21 6 2 -6 -1 -12 -7
-14z m-112 -52 c0 -5 -4 -10 -10 -10 -5 0 -10 5 -10 10 0 6 5 10 10 10 6 0 10
-4 10 -10z m-10 -55 c-7 -9 -15 -13 -18 -10 -3 2 1 11 8 20 7 9 15 13 18 10 3
-2 -1 -11 -8 -20z"/>
<path d="M6305 3270 c-3 -5 -1 -10 4 -10 6 0 11 5 11 10 0 6 -2 10 -4 10 -3 0
-8 -4 -11 -10z"/>
<path d="M6276 3251 c-7 -10 -24 -12 -67 -8 -56 5 -59 4 -65 -20 -5 -17 -10
-21 -17 -14 -16 16 -30 13 -23 -4 3 -8 1 -15 -4 -15 -6 0 -10 -4 -10 -10 0
-15 36 -12 49 4 11 13 15 13 31 -1 10 -9 16 -23 12 -31 -3 -9 -1 -13 4 -9 6 3
30 1 55 -4 61 -14 107 -21 154 -23 22 0 47 -5 55 -11 23 -15 70 -15 70 0 0 8
7 20 15 29 13 12 13 20 2 53 -10 31 -17 38 -39 38 -15 1 -30 4 -34 8 -4 4 -16
7 -26 7 -15 0 -18 -5 -13 -22 l7 -23 -17 23 c-18 24 -41 29 -48 10 -4 -10 -7
-10 -15 0 -6 8 -18 11 -35 7 -19 -5 -26 -3 -29 12 -3 14 -5 15 -12 4z"/>
<path d="M3128 3133 c7 -3 16 -2 19 1 4 3 -2 6 -13 5 -11 0 -14 -3 -6 -6z"/>
<path d="M3078 3123 c7 -3 16 -2 19 1 4 3 -2 6 -13 5 -11 0 -14 -3 -6 -6z"/>
<path d="M2885 3089 c-16 -5 -73 -12 -125 -15 -52 -3 -97 -8 -99 -10 -3 -2 1
-10 7 -16 9 -9 24 -9 63 0 28 7 68 12 90 12 38 0 109 23 109 34 0 7 -8 7 -45
-5z"/>
<path d="M2614 3032 c5 -8 0 -12 -13 -12 -26 0 -127 -101 -114 -114 4 -3 -1
-6 -9 -6 -9 0 -25 -20 -37 -45 -12 -25 -25 -45 -31 -45 -5 0 -7 -6 -4 -13 2
-7 -7 -26 -21 -43 -21 -24 -22 -30 -9 -32 13 -3 14 -6 1 -20 -7 -10 -20 -33
-27 -52 -16 -42 -39 -72 -51 -64 -5 3 -9 -2 -9 -10 0 -9 -4 -16 -10 -16 -5 0
-10 -12 -10 -27 l1 -28 14 25 14 25 1 -33 c0 -20 4 -31 10 -27 6 3 10 16 10
29 0 28 34 66 60 66 11 0 24 12 32 30 7 17 21 33 30 36 14 4 16 9 8 24 -13 25
-13 30 5 30 14 0 19 14 18 48 -1 6 5 12 13 12 14 0 60 40 47 40 -5 0 -3 4 2 8
13 9 42 54 43 67 0 5 8 12 18 15 9 4 19 17 21 31 2 13 20 39 40 56 20 18 34
35 31 38 -3 3 -23 9 -43 12 -28 4 -36 3 -31 -5z"/>
<path d="M2385 2940 c-10 -11 -24 -20 -30 -20 -7 0 -12 -6 -11 -12 0 -7 -3
-15 -9 -17 -82 -34 -119 -63 -158 -124 -10 -16 -26 -36 -35 -46 -41 -43 -62
-73 -57 -81 3 -4 -2 -15 -10 -24 -9 -8 -22 -31 -30 -50 -8 -19 -19 -37 -24
-41 -6 -3 -8 -12 -5 -19 3 -7 -5 -30 -17 -51 -12 -20 -22 -52 -21 -71 1 -21
-5 -38 -16 -46 -12 -9 -18 -28 -19 -58 -1 -25 -2 -51 -2 -58 -1 -7 -5 -11 -10
-8 -5 3 -12 -1 -15 -10 -3 -8 -2 -12 4 -9 13 8 13 -11 -1 -37 -9 -16 -8 -23 2
-29 21 -13 24 -11 39 26 8 20 20 41 27 47 7 6 13 17 13 25 0 8 11 29 25 47 14
18 25 40 25 48 0 8 11 27 24 41 13 14 26 37 30 51 3 14 11 26 16 26 6 0 10 7
10 15 0 18 16 20 24 3 3 -7 4 -1 1 14 -3 15 1 32 8 40 7 7 18 24 24 38 21 43
67 119 86 140 9 11 17 26 17 33 0 7 16 37 36 67 20 30 40 64 45 75 13 29 32
59 44 67 6 5 6 11 -1 18 -7 7 -16 5 -29 -10z"/>
<path d="M7100 2910 c0 -10 46 -33 58 -29 5 2 -6 11 -24 20 -19 9 -34 13 -34
9z"/>
<path d="M5180 2896 c0 -2 6 -16 14 -31 11 -20 12 -34 4 -56 -6 -16 -7 -44 -4
-62 19 -91 23 -133 15 -143 -6 -7 -5 -22 0 -38 9 -23 8 -26 -16 -33 -25 -6
-25 -7 -8 -13 18 -7 17 -8 -8 -15 -15 -4 -26 -12 -24 -18 2 -7 -7 -23 -20 -37
-16 -17 -22 -32 -18 -47 4 -16 1 -23 -9 -23 -20 0 -56 -48 -50 -65 3 -8 -8
-27 -24 -44 -26 -24 -44 -70 -47 -114 0 -4 -7 -12 -15 -17 -12 -8 -12 -10 5
-10 19 -1 18 -2 -3 -13 -12 -7 -19 -16 -16 -20 4 -4 3 -7 -3 -7 -5 0 -16 -19
-23 -42 -8 -24 -19 -46 -24 -50 -5 -3 -10 -42 -11 -85 -1 -43 -7 -97 -13 -119
-7 -23 -12 -57 -12 -75 1 -76 -8 -129 -30 -186 -7 -16 -5 -23 7 -27 11 -5 13
-10 4 -20 -6 -7 -8 -16 -5 -19 4 -3 3 -14 -1 -24 -4 -10 -9 -31 -11 -46 -2
-16 -8 -36 -13 -46 -6 -10 -7 -27 -4 -39 3 -13 1 -22 -6 -22 -5 0 -8 -7 -5
-15 4 -8 1 -22 -5 -29 -9 -11 -9 -15 1 -18 11 -4 10 -8 0 -21 -8 -9 -11 -25
-7 -36 3 -10 1 -22 -5 -26 -5 -3 -10 -17 -10 -30 0 -13 -4 -26 -10 -30 -5 -3
-7 -12 -4 -19 3 -8 1 -17 -5 -20 -6 -4 -8 -13 -4 -21 3 -9 0 -22 -7 -30 -6 -8
-9 -19 -5 -24 3 -6 -3 -18 -13 -27 -12 -10 -17 -24 -15 -35 3 -11 1 -19 -3
-19 -5 0 -10 -16 -11 -36 -1 -20 -9 -44 -18 -54 -9 -10 -14 -24 -10 -30 4 -7
2 -16 -6 -20 -7 -5 -14 -27 -15 -50 -1 -22 -8 -47 -14 -55 -7 -8 -9 -15 -5
-15 4 0 2 -7 -5 -15 -7 -9 -10 -18 -6 -22 3 -3 -8 -30 -24 -60 -17 -29 -26
-53 -20 -53 7 0 7 -6 0 -17 -14 -26 -40 -111 -40 -132 0 -10 -7 -24 -15 -31
-9 -8 -13 -21 -9 -36 7 -27 -30 -147 -51 -164 -8 -6 -12 -17 -10 -23 6 -15
-14 -40 -43 -56 -29 -16 -40 -7 -18 14 25 26 19 29 -16 8 -53 -31 -65 -33 -63
-13 1 10 7 25 14 34 8 9 11 26 7 40 -4 15 -1 26 6 28 7 3 3 7 -8 10 -17 4 -20
1 -16 -23 4 -24 1 -29 -17 -29 -12 0 -19 -4 -16 -10 3 -5 -6 -21 -22 -35 -15
-13 -22 -25 -15 -25 6 0 12 4 12 9 0 10 31 24 38 16 3 -2 -6 -13 -18 -23 -23
-19 -20 -19 239 -21 189 -1 267 1 277 10 8 6 14 27 14 46 0 19 4 43 10 53 5
10 11 36 12 57 2 21 8 41 13 46 6 4 5 10 -3 15 -10 7 -10 11 3 22 8 7 15 21
15 30 0 10 6 20 12 22 8 3 11 20 10 44 -3 42 16 72 38 59 20 -13 9 14 -12 29
-21 15 -21 16 -3 16 13 0 16 3 8 11 -13 13 -4 59 12 59 9 0 12 13 10 42 -1 24
3 52 8 63 6 11 10 30 8 42 -2 18 1 22 15 16 12 -4 15 -3 10 6 -4 6 -3 17 2 24
6 7 8 25 7 42 -2 16 0 34 4 40 8 9 24 58 26 80 1 6 5 26 10 45 12 47 12 54 2
61 -5 3 -2 22 6 42 9 20 13 44 11 55 -3 10 2 24 10 31 12 10 13 18 5 33 -6 11
-8 22 -5 26 3 3 6 0 6 -6 0 -7 5 -12 10 -12 15 0 12 27 -6 44 -11 12 -12 16
-2 16 7 0 18 11 24 24 9 20 9 23 -2 19 -8 -3 -14 -1 -14 5 0 5 7 12 15 16 13
5 13 10 -3 42 -13 28 -14 38 -4 41 6 3 12 13 12 24 0 10 5 19 11 19 6 0 9 7 5
15 -9 24 5 109 15 93 11 -17 11 -10 0 28 -9 33 9 71 28 59 7 -4 8 0 4 10 -3
10 -1 20 6 24 9 6 9 15 1 35 -15 41 -12 64 9 71 16 5 18 12 13 47 -3 30 -2 39
6 34 8 -5 12 1 12 14 0 12 5 18 10 15 6 -3 10 1 10 9 0 9 5 16 10 16 6 0 9 12
8 28 -1 15 6 43 16 62 34 63 36 69 30 84 -3 8 -1 23 5 33 9 16 10 15 11 -7 1
-25 1 -25 10 -2 5 12 7 29 4 37 -4 9 1 18 11 21 9 4 14 13 11 20 -3 8 -1 14 4
14 6 0 10 7 10 16 0 8 5 12 10 9 6 -3 10 -1 10 5 0 18 58 72 62 58 3 -7 7 -3
10 10 4 12 2 20 -3 16 -5 -3 -9 -1 -9 4 0 14 27 23 46 15 11 -4 15 -2 12 8 -3
8 8 20 26 29 22 11 30 21 28 35 -2 11 -8 22 -13 23 -5 2 -9 11 -10 20 0 12 -2
13 -6 3 -5 -11 -7 -11 -14 0 -8 12 -10 12 -18 1 -4 -8 -12 -13 -17 -12 -5 1
-12 -13 -17 -30 -4 -18 -11 -29 -14 -26 -4 3 -17 -10 -30 -30 -20 -28 -29 -34
-46 -28 -30 9 -34 14 -17 24 9 6 17 5 21 -2 4 -7 9 -7 13 1 4 6 4 11 -1 11 -4
0 -1 5 7 11 13 9 12 10 -2 5 -24 -7 -23 9 5 65 27 56 51 81 64 68 6 -6 10 3
11 27 2 43 -7 62 -19 43 -6 -10 -9 -10 -9 -2 0 6 5 15 10 18 10 6 -14 62 -32
75 -4 3 -14 23 -23 43 -9 21 -19 36 -24 33 -4 -3 -8 9 -8 25 0 17 -4 34 -9 37
-5 4 -16 19 -24 33 -38 67 -73 99 -107 99 -18 0 -33 -2 -33 -4z m180 -626 c0
-5 -5 -10 -11 -10 -6 0 -9 -6 -6 -14 3 -8 0 -19 -7 -26 -11 -8 -15 -4 -18 20
-3 16 -2 32 0 35 9 9 42 5 42 -5z"/>
<path d="M5950 2880 c20 -13 33 -13 25 0 -3 6 -14 10 -23 10 -15 0 -15 -2 -2
-10z"/>
<path d="M6111 2842 c0 -7 -6 -10 -12 -6 -8 5 -10 -2 -6 -22 4 -21 0 -35 -15
-51 -13 -14 -17 -26 -12 -35 16 -24 10 -102 -8 -116 -10 -7 -18 -20 -18 -28 0
-8 -4 -14 -8 -14 -17 0 -21 13 -11 33 14 25 -8 42 -28 21 -8 -8 -21 -14 -30
-14 -11 0 -14 -6 -9 -25 5 -21 3 -25 -16 -26 -17 -1 -19 -2 -5 -6 24 -6 11
-23 -19 -23 -30 0 -31 -15 -1 -32 l22 -12 -25 -7 c-18 -5 -10 -7 29 -8 41 -1
60 -6 78 -23 l23 -21 0 26 c0 14 -4 29 -10 32 -20 12 -10 26 18 25 75 -5 93
-1 91 23 -4 44 1 55 30 65 23 8 28 15 24 32 -4 14 2 28 16 41 19 18 26 17 22
-4 -1 -4 6 -21 14 -37 11 -21 12 -31 3 -36 -7 -4 7 -13 33 -20 53 -16 52 -16
44 -4 -3 6 1 10 10 10 9 0 13 -4 10 -10 -9 -15 7 -12 31 5 12 8 24 11 28 8 3
-3 6 6 6 20 0 19 4 25 15 21 8 -4 15 -2 15 4 0 6 -6 13 -12 15 -7 3 -3 6 10 6
12 1 22 6 22 12 0 7 -12 10 -30 7 -16 -3 -30 -1 -30 4 0 4 -7 8 -16 8 -10 0
-14 6 -10 15 3 9 0 15 -10 15 -10 0 -14 6 -10 15 4 11 -3 19 -19 25 -14 5 -25
12 -25 15 0 4 4 3 10 0 6 -3 7 1 4 9 -8 20 -14 20 -31 -1 -13 -17 -14 -16 -8
3 4 17 0 23 -17 28 -33 8 -40 7 -32 -5 3 -6 0 -15 -7 -20 -12 -8 -12 -11 1
-19 12 -8 12 -10 -5 -10 -11 0 -30 7 -41 15 -12 8 -24 11 -28 8 -3 -3 -6 8 -6
25 0 23 -4 30 -14 26 -8 -3 -16 2 -19 13 -3 10 -5 12 -6 5z m129 -122 c0 -5
-10 -15 -22 -21 -13 -7 -28 -19 -35 -28 -15 -21 -22 -12 -16 21 4 20 10 25 29
23 13 -1 24 2 24 6 0 5 5 9 10 9 6 0 10 -4 10 -10z m-64 -97 c-10 -10 -19 5
-10 18 6 11 8 11 12 0 2 -7 1 -15 -2 -18z m149 -23 c-3 -5 -16 -10 -28 -9 -20
1 -20 2 3 9 14 4 26 8 28 9 2 1 0 -3 -3 -9z m-225 -30 c0 -5 -4 -10 -10 -10
-5 0 -10 5 -10 10 0 6 5 10 10 10 6 0 10 -4 10 -10z"/>
<path d="M5079 2745 c-7 -19 -18 -35 -25 -35 -6 0 -14 -10 -17 -21 -5 -17 -11
-20 -32 -17 -14 3 -28 1 -31 -3 -3 -5 11 -9 30 -9 19 0 38 5 41 10 3 6 14 10
23 10 9 0 25 16 35 36 15 31 15 37 3 50 -13 12 -16 10 -27 -21z"/>
<path d="M5143 2757 c0 -15 3 -27 8 -27 16 0 18 17 5 35 -13 17 -13 17 -13 -8z"/>
<path d="M2477 2711 c-4 -17 -3 -21 5 -13 5 5 8 16 6 23 -3 8 -7 3 -11 -10z"/>
<path d="M5150 2700 c0 -5 5 -10 10 -10 6 0 10 5 10 10 0 6 -4 10 -10 10 -5 0
-10 -4 -10 -10z"/>
<path d="M3065 2600 c-3 -5 1 -10 9 -10 9 0 16 5 16 10 0 6 -4 10 -9 10 -6 0
-13 -4 -16 -10z"/>
<path d="M3988 2563 c7 -3 16 -2 19 1 4 3 -2 6 -13 5 -11 0 -14 -3 -6 -6z"/>
<path d="M6261 2556 c12 -10 60 -16 54 -6 -3 5 -18 10 -32 10 -15 0 -24 -2
-22 -4z"/>
<path d="M2345 2540 c-3 -5 -1 -10 4 -10 6 0 11 5 11 10 0 6 -2 10 -4 10 -3 0
-8 -4 -11 -10z"/>
<path d="M6275 2530 c3 -5 11 -10 16 -10 6 0 7 5 4 10 -3 6 -11 10 -16 10 -6
0 -7 -4 -4 -10z"/>
<path d="M6316 2495 c-3 -8 -1 -15 4 -15 6 0 10 7 10 15 0 8 -2 15 -4 15 -2 0
-6 -7 -10 -15z"/>
<path d="M1907 2479 c-9 -6 -17 -14 -17 -19 0 -16 30 -11 37 5 8 21 1 25 -20
14z"/>
<path d="M6470 2479 c0 -5 5 -7 10 -4 6 3 10 8 10 11 0 2 -4 4 -10 4 -5 0 -10
-5 -10 -11z"/>
<path d="M6427 2456 c-9 -10 -26 -18 -37 -19 -18 -1 -25 -18 -21 -52 0 -6 -17
-30 -39 -55 -22 -25 -40 -50 -40 -56 0 -6 -7 -17 -15 -24 -8 -7 -12 -17 -8
-24 4 -6 -1 -5 -10 3 -11 8 -17 9 -17 2 0 -6 -11 -13 -24 -17 -14 -3 -23 -11
-20 -17 2 -7 -11 -28 -29 -47 -19 -19 -35 -39 -36 -45 -11 -50 -15 -56 -32
-52 -14 4 -19 0 -19 -14 0 -10 -4 -19 -10 -19 -5 0 -20 -11 -34 -25 -14 -14
-30 -25 -36 -25 -6 0 -8 -4 -5 -10 3 -5 -1 -10 -9 -10 -9 0 -25 -13 -38 -30
-12 -16 -27 -30 -33 -30 -7 0 -24 -11 -39 -25 -27 -25 -63 -35 -51 -14 4 6 -2
9 -17 8 -38 -3 -58 0 -58 12 0 5 5 7 10 4 13 -8 -39 92 -58 113 -7 8 -16 27
-19 43 -3 16 -9 29 -14 29 -5 0 -12 18 -15 40 -7 40 -37 90 -54 90 -5 0 -21
-5 -36 -10 -24 -9 -25 -12 -13 -28 8 -9 20 -27 27 -40 11 -20 10 -23 -13 -32
-15 -6 -33 -10 -41 -10 -8 0 -18 -8 -21 -17 -4 -9 -15 -25 -25 -35 -19 -19
-25 -68 -8 -68 6 0 10 -10 10 -22 0 -29 8 -40 43 -57 17 -9 26 -20 22 -29 -4
-12 0 -11 20 2 22 15 28 15 60 2 32 -14 48 -36 25 -36 -5 0 -10 -7 -10 -16 0
-10 -6 -14 -15 -10 -8 3 -15 1 -15 -4 0 -6 5 -10 12 -10 6 0 9 -3 5 -6 -3 -4
0 -22 8 -40 12 -30 12 -34 -1 -34 -7 0 -14 -4 -14 -10 0 -14 8 -13 41 7 16 10
29 23 29 30 0 7 4 13 10 13 5 0 28 17 50 38 23 20 46 37 53 37 7 1 23 7 36 14
22 12 24 12 18 -9 -5 -21 -3 -22 29 -17 25 4 34 2 34 -9 0 -8 6 -14 13 -14 9
0 9 -2 -1 -9 -11 -7 -10 -9 3 -15 9 -3 13 -10 10 -16 -3 -6 1 -13 10 -16 10
-4 13 -13 10 -25 -8 -25 6 -24 38 1 14 11 30 20 37 20 18 0 47 33 33 37 -8 3
-4 14 12 31 14 15 25 31 25 37 0 5 -7 1 -15 -9 -28 -36 -18 10 11 54 15 22 24
46 21 54 -4 10 -1 13 9 9 10 -4 14 2 14 20 0 14 4 28 10 32 5 3 6 13 3 22 -4
11 -3 14 5 9 8 -4 12 0 12 11 0 10 7 27 15 37 8 11 15 28 15 39 0 12 5 17 14
14 10 -4 12 0 8 15 -3 14 -1 19 6 14 12 -7 34 26 30 46 -2 7 3 12 10 11 11 -3
16 10 13 30 -1 5 3 6 9 2 5 -3 10 -1 10 4 0 6 3 10 8 8 13 -4 79 77 74 92 -3
9 0 11 8 6 10 -6 12 -4 7 7 -8 23 30 60 54 53 13 -4 19 -2 19 8 0 9 6 17 13
20 10 4 10 7 0 18 -11 11 -13 11 -13 0 0 -8 -8 -4 -18 9 -17 21 -19 21 -35 6z
m-757 -726 c0 -5 -2 -10 -4 -10 -3 0 -8 5 -11 10 -3 6 -1 10 4 10 6 0 11 -4
11 -10z"/>
<path d="M2880 2435 c0 -5 5 -17 10 -25 5 -8 10 -10 10 -5 0 6 -5 17 -10 25
-5 8 -10 11 -10 5z"/>
<path d="M1816 2420 c-11 -3 -15 -9 -10 -13 10 -6 42 9 34 16 -3 3 -14 1 -24
-3z"/>
<path d="M5708 2423 c7 -3 16 -2 19 1 4 3 -2 6 -13 5 -11 0 -14 -3 -6 -6z"/>
<path d="M5873 2422 c-18 -2 -33 -7 -33 -11 0 -4 -26 -6 -57 -4 -34 1 -63 -2
-72 -10 -12 -9 -13 -9 -7 1 12 20 -13 14 -31 -8 -10 -11 -27 -20 -39 -20 -12
0 -25 -7 -28 -16 -9 -24 -7 -34 7 -34 7 0 19 -9 27 -20 15 -21 47 -29 34 -9
-5 8 8 9 45 4 42 -6 51 -4 51 8 0 21 37 32 55 17 15 -12 16 -75 2 -97 -5 -8
-3 -13 3 -13 7 0 10 -7 6 -15 -3 -8 -1 -15 4 -15 6 0 10 -7 10 -15 0 -22 38
-18 45 5 3 11 11 20 16 20 5 0 9 15 9 34 0 19 6 37 13 39 7 3 5 6 -5 6 -19 1
-24 26 -8 36 6 4 8 10 5 15 -3 4 5 6 17 3 21 -6 21 -4 -5 20 -26 25 -26 27 -7
27 11 0 28 4 38 9 9 5 25 12 35 15 9 3 17 12 17 19 0 14 -61 17 -147 9z m27
-101 c0 -30 -11 -51 -26 -51 -17 0 -18 36 -1 55 17 20 27 18 27 -4z"/>
<path d="M2487 2309 c4 -13 8 -18 11 -10 2 7 -1 18 -6 23 -8 8 -9 4 -5 -13z"/>
<path d="M2465 2279 c10 -35 23 -45 18 -15 -3 15 -10 29 -15 32 -6 4 -7 -2 -3
-17z"/>
<path d="M5734 2265 c8 -8 17 -15 20 -15 3 0 6 7 6 15 0 9 -9 15 -21 15 -18 0
-19 -2 -5 -15z"/>
<path d="M5953 2220 c1 -11 5 -20 9 -20 11 0 10 28 -1 35 -6 3 -9 -4 -8 -15z"/>
<path d="M5980 2230 c0 -5 5 -10 11 -10 5 0 7 5 4 10 -3 6 -8 10 -11 10 -2 0
-4 -4 -4 -10z"/>
<path d="M2495 2210 c-3 -5 -1 -10 4 -10 6 0 11 5 11 10 0 6 -2 10 -4 10 -3 0
-8 -4 -11 -10z"/>
<path d="M2457 2189 c-3 -13 -1 -19 6 -16 15 5 22 37 9 37 -5 0 -12 -9 -15
-21z"/>
<path d="M4588 2203 c7 -3 16 -2 19 1 4 3 -2 6 -13 5 -11 0 -14 -3 -6 -6z"/>
<path d="M3102 2170 c7 -10 14 -18 15 -16 6 6 -9 36 -18 36 -5 0 -4 -9 3 -20z"/>
<path d="M3070 2171 c0 -5 5 -13 10 -16 6 -3 10 -2 10 4 0 5 -4 13 -10 16 -5
3 -10 2 -10 -4z"/>
<path d="M2386 2160 c-11 -3 -15 -9 -10 -13 10 -6 42 9 34 16 -3 3 -14 1 -24
-3z"/>
<path d="M1900 2095 c-7 -8 -10 -15 -7 -15 3 0 -3 -28 -14 -62 -10 -35 -19
-65 -19 -68 1 -13 30 36 30 49 0 9 7 29 15 45 8 15 12 33 8 39 -3 6 -1 7 5 3
7 -4 12 -1 12 8 0 20 -14 20 -30 1z"/>
<path d="M2395 2070 l0 -39 16 25 c8 13 19 21 22 17 4 -3 7 -1 7 6 0 8 -7 11
-15 7 -8 -3 -18 1 -22 9 -6 9 -8 0 -8 -25z"/>
<path d="M3036 2102 c-3 -6 -1 -14 5 -17 14 -9 20 -2 10 14 -6 8 -11 9 -15 3z"/>
<path d="M2351 2044 c0 -11 3 -14 6 -6 3 7 2 16 -1 19 -3 4 -6 -2 -5 -13z"/>
<path d="M4615 2050 c-3 -5 1 -10 9 -10 9 0 16 5 16 10 0 6 -4 10 -9 10 -6 0
-13 -4 -16 -10z"/>
<path d="M4598 2023 c7 -3 16 -2 19 1 4 3 -2 6 -13 5 -11 0 -14 -3 -6 -6z"/>
<path d="M4598 1963 c7 -3 16 -2 19 1 4 3 -2 6 -13 5 -11 0 -14 -3 -6 -6z"/>
<path d="M1842 1895 c0 -16 2 -22 5 -12 2 9 2 23 0 30 -3 6 -5 -1 -5 -18z"/>
<path d="M4598 1903 c7 -3 16 -2 19 1 4 3 -2 6 -13 5 -11 0 -14 -3 -6 -6z"/>
<path d="M2618 1893 c7 -3 16 -2 19 1 4 3 -2 6 -13 5 -11 0 -14 -3 -6 -6z"/>
<path d="M4600 1880 c-13 -9 -13 -10 0 -10 8 0 22 5 30 10 13 9 13 10 0 10 -8
0 -22 -5 -30 -10z"/>
<path d="M5830 1870 c8 -5 22 -9 30 -9 10 0 8 3 -5 9 -27 12 -43 12 -25 0z"/>
<path d="M4598 1843 c7 -3 16 -2 19 1 4 3 -2 6 -13 5 -11 0 -14 -3 -6 -6z"/>
<path d="M2840 1829 c0 -5 5 -7 10 -4 6 3 10 8 10 11 0 2 -4 4 -10 4 -5 0 -10
-5 -10 -11z"/>
<path d="M4605 1815 c-24 -11 -26 -14 -9 -14 11 -1 29 6 40 14 24 18 8 18 -31
0z"/>
<path d="M4588 1773 c7 -3 16 -2 19 1 4 3 -2 6 -13 5 -11 0 -14 -3 -6 -6z"/>
<path d="M5590 1685 c0 -8 4 -15 10 -15 5 0 7 7 4 15 -4 8 -8 15 -10 15 -2 0
-4 -7 -4 -15z"/>
<path d="M4330 1670 c0 -5 7 -7 15 -4 8 4 15 8 15 10 0 2 -7 4 -15 4 -8 0 -15
-4 -15 -10z"/>
<path d="M4347 1643 c-4 -3 -7 -11 -7 -17 0 -6 5 -5 12 2 6 6 9 14 7 17 -3 3
-9 2 -12 -2z"/>
<path d="M1737 1633 c-12 -11 -8 -23 8 -23 8 0 15 7 15 15 0 16 -12 20 -23 8z"/>
<path d="M4310 1560 c-9 -6 -10 -10 -3 -10 6 0 15 5 18 10 8 12 4 12 -15 0z"/>
<path d="M2460 1545 c11 -13 10 -18 -6 -30 -22 -16 -12 -20 16 -5 21 11 16 50
-7 50 -13 0 -13 -3 -3 -15z"/>
<path d="M1930 1530 c0 -5 5 -10 11 -10 5 0 7 5 4 10 -3 6 -8 10 -11 10 -2 0
-4 -4 -4 -10z"/>
<path d="M2010 1529 c0 -6 -8 -9 -18 -7 -15 4 -18 1 -14 -21 5 -23 6 -24 13
-6 4 11 8 16 8 12 1 -9 31 18 31 27 0 3 -4 6 -10 6 -5 0 -10 -5 -10 -11z"/>
<path d="M1635 1520 c-3 -5 -1 -10 4 -10 6 0 11 5 11 10 0 6 -2 10 -4 10 -3 0
-8 -4 -11 -10z"/>
<path d="M7674 1490 c-3 -19 -10 -49 -15 -66 -5 -18 -9 -36 -8 -40 4 -22 -2
-34 -18 -35 -12 0 -8 -5 12 -15 24 -12 25 -14 7 -10 -35 7 -52 -3 -52 -30 0
-13 -5 -24 -11 -24 -6 0 -9 -7 -6 -15 4 -8 2 -17 -3 -20 -16 -10 -12 -23 8
-28 13 -3 10 -6 -11 -12 -15 -4 -26 -13 -25 -19 2 -7 -10 -24 -26 -39 -18 -17
-29 -37 -30 -58 -1 -18 -7 -34 -14 -37 -7 -2 -15 -21 -18 -43 -4 -24 -16 -47
-30 -58 -13 -10 -24 -28 -24 -39 0 -11 -6 -25 -13 -31 -8 -6 -19 -29 -26 -52
-9 -31 -20 -44 -42 -52 -16 -6 -29 -15 -29 -20 0 -5 -7 -15 -15 -23 -8 -9 -15
-19 -15 -24 0 -5 7 -7 15 -4 8 4 15 1 15 -5 0 -6 -11 -13 -25 -17 -29 -7 -32
-19 -9 -32 11 -6 13 -11 5 -16 -6 -4 -11 -15 -11 -24 0 -9 -16 -27 -35 -40
-29 -18 -34 -27 -29 -46 5 -20 -2 -27 -40 -50 -50 -29 -57 -37 -26 -29 41 11
18 -16 -50 -57 -83 -50 -96 -65 -49 -56 27 6 30 5 17 -4 -22 -13 -23 -30 -3
-30 21 0 19 -16 -6 -34 -12 -8 -18 -19 -15 -25 12 -19 -13 -51 -41 -51 -14 0
-24 -3 -20 -6 8 -8 -18 -34 -33 -34 -7 0 -9 -7 -6 -16 3 -8 1 -24 -4 -34 -8
-14 -6 -21 6 -28 14 -8 14 -10 0 -25 -35 -35 -21 -37 218 -37 200 0 235 2 247
16 10 13 10 17 0 23 -9 6 -4 14 18 30 17 12 35 19 41 16 13 -8 13 1 0 26 -9
15 -7 21 5 25 12 5 15 18 12 59 -3 29 -7 57 -10 61 -6 11 41 94 54 94 14 0 10
22 -8 42 -15 17 -15 18 0 18 10 0 17 5 17 10 0 6 -5 10 -11 10 -6 0 -9 8 -7
18 2 9 8 17 15 17 6 0 15 3 19 8 4 4 3 7 -3 7 -7 0 -10 20 -10 49 2 46 4 50
31 58 24 7 29 14 31 43 1 19 -3 40 -7 47 -6 7 -4 37 3 72 10 51 14 59 26 50 7
-7 16 -9 20 -5 3 3 0 6 -7 6 -11 0 -11 3 -2 12 17 17 15 41 -3 34 -17 -6 -21
9 -5 19 8 5 8 11 0 20 -13 16 -3 62 15 68 8 3 11 15 8 31 -4 17 -1 26 7 26 8
0 10 9 6 26 -5 17 -1 35 9 50 8 13 13 24 9 24 -4 0 -2 6 3 13 15 18 25 67 15
67 -5 0 -7 12 -4 26 3 18 8 22 15 15 18 -18 24 -13 29 19 3 18 0 34 -7 38 -7
4 -15 19 -19 34 -5 23 -3 27 21 31 26 4 26 4 -4 6 -32 1 -45 22 -23 36 6 3 10
15 10 26 0 10 4 19 10 19 5 0 7 7 4 15 -4 9 0 15 10 15 19 0 19 1 6 34 -14 39
-48 31 -56 -14z m-584 -1140 c0 -5 -8 -10 -17 -10 -15 0 -16 2 -3 10 19 12 20
12 20 0z"/>
<path d="M7771 1513 c-7 -8 -11 -16 -8 -19 2 -2 10 2 17 11 17 20 9 27 -9 8z"/>
<path d="M1910 1511 c0 -6 4 -13 10 -16 6 -3 7 1 4 9 -7 18 -14 21 -14 7z"/>
<path d="M2510 1511 c0 -5 5 -13 10 -16 6 -3 10 -2 10 4 0 5 -4 13 -10 16 -5
3 -10 2 -10 -4z"/>
<path d="M1945 1500 c-3 -5 -1 -10 4 -10 6 0 11 5 11 10 0 6 -2 10 -4 10 -3 0
-8 -4 -11 -10z"/>
<path d="M4483 1497 c-39 -15 -58 -33 -23 -23 14 5 37 10 53 13 15 3 27 9 27
14 0 12 -17 10 -57 -4z"/>
<path d="M2016 1484 c-3 -9 -6 -23 -5 -32 0 -12 2 -13 6 -3 5 11 7 11 14 0 6
-10 9 -6 9 13 0 31 -15 45 -24 22z"/>
<path d="M1895 1475 c4 -11 10 -28 12 -37 3 -10 10 -18 15 -18 13 0 -1 42 -19
60 -14 13 -15 13 -8 -5z"/>
<path d="M4455 1450 c-39 -19 -49 -27 -30 -23 47 9 131 55 98 53 -5 -1 -35
-14 -68 -30z"/>
<path d="M8468 1463 c7 -3 16 -2 19 1 4 3 -2 6 -13 5 -11 0 -14 -3 -6 -6z"/>
<path d="M2395 1450 c-3 -6 1 -7 9 -4 18 7 21 14 7 14 -6 0 -13 -4 -16 -10z"/>
<path d="M2464 1444 c9 -8 16 -20 16 -26 0 -6 3 -9 6 -6 8 9 -14 48 -27 48 -6
0 -3 -7 5 -16z"/>
<path d="M1864 1434 c3 -9 6 -23 6 -33 0 -10 8 -17 20 -17 22 0 26 17 10 47
-13 23 -45 26 -36 3z"/>
<path d="M2120 1440 c0 -5 5 -10 11 -10 5 0 7 5 4 10 -3 6 -8 10 -11 10 -2 0
-4 -4 -4 -10z"/>
<path d="M2436 1437 c3 -10 9 -15 12 -12 3 3 0 11 -7 18 -10 9 -11 8 -5 -6z"/>
<path d="M2100 1411 c0 -12 5 -21 10 -21 6 0 10 6 10 14 0 8 -4 18 -10 21 -5
3 -10 -3 -10 -14z"/>
<path d="M1700 1405 c0 -8 5 -15 10 -15 6 0 10 7 10 15 0 8 -4 15 -10 15 -5 0
-10 -7 -10 -15z"/>
<path d="M2000 1405 c0 -9 5 -15 11 -13 6 2 11 8 11 13 0 5 -5 11 -11 13 -6 2
-11 -4 -11 -13z"/>
<path d="M4390 1390 c-12 -8 -11 -10 8 -10 12 0 22 5 22 10 0 13 -11 13 -30 0z"/>
<path d="M1847 1374 c-6 -10 20 -51 27 -43 2 2 -1 15 -8 28 -7 13 -16 20 -19
15z"/>
<path d="M1945 1370 c-4 -6 3 -10 14 -10 25 0 27 6 6 13 -8 4 -17 2 -20 -3z"/>
<path d="M8466 1364 c-5 -16 -13 -20 -36 -16 -18 3 -30 0 -30 -7 0 -6 7 -11
16 -11 14 0 16 -8 10 -52 -5 -37 -4 -53 6 -59 7 -4 9 -12 4 -16 -5 -4 -11 -2
-13 5 -6 17 -33 15 -33 -3 0 -8 -6 -15 -14 -15 -7 0 -19 -7 -26 -15 -10 -12
-10 -15 4 -15 30 0 16 -19 -19 -26 -28 -5 -33 -9 -25 -19 8 -9 8 -15 0 -20 -7
-4 -7 -12 0 -26 9 -16 7 -19 -9 -19 -25 0 -37 -18 -17 -26 21 -8 20 -22 -1
-26 -13 -2 -18 -14 -18 -40 -1 -20 -7 -44 -15 -53 -11 -13 -11 -18 -1 -25 10
-6 11 -12 2 -26 -7 -14 -10 -15 -11 -5 0 13 -2 13 -12 2 -10 -11 -10 -14 0
-18 6 -3 12 -14 12 -24 0 -11 -4 -17 -10 -14 -5 3 -10 2 -10 -4 0 -5 6 -12 13
-15 10 -5 10 -7 0 -12 -7 -3 -13 -14 -13 -24 0 -9 -6 -23 -14 -30 -8 -6 -12
-18 -9 -26 3 -8 0 -21 -7 -29 -6 -8 -9 -19 -5 -25 3 -5 -1 -13 -10 -16 -10 -4
-13 -13 -9 -26 3 -10 0 -26 -7 -34 -6 -8 -9 -17 -6 -21 4 -3 2 -12 -4 -19 -6
-8 -6 -14 0 -18 15 -10 -31 -96 -51 -96 -21 0 -24 -16 -5 -23 8 -3 6 -9 -7
-19 -17 -13 -17 -15 -2 -21 20 -8 21 -33 0 -41 -8 -3 -13 -10 -10 -15 3 -5 -1
-14 -9 -21 -8 -7 -12 -16 -9 -21 3 -5 3 -23 -1 -39 -6 -27 -11 -30 -43 -30
-20 0 -44 -5 -52 -10 -10 -6 0 -8 33 -5 27 3 47 1 47 -5 0 -6 -4 -10 -9 -10
-5 0 -8 -12 -7 -28 2 -15 -3 -39 -10 -54 -30 -58 -29 -58 144 -58 l158 0 -4
40 c-4 43 17 80 45 80 19 0 16 17 -4 30 -17 9 -17 11 -1 20 10 6 15 17 11 25
-3 9 1 23 8 32 12 14 11 15 -11 8 -24 -7 -24 -7 -9 11 31 37 33 47 9 39 l-23
-7 22 23 c25 27 26 33 6 49 -12 10 -12 15 3 38 9 15 19 29 23 32 3 3 8 17 11
32 4 19 1 25 -9 21 -7 -3 -13 -1 -13 5 0 5 7 12 15 16 16 6 16 35 0 101 -5 22
-4 26 4 15 9 -12 11 -12 17 3 3 9 16 17 28 18 11 0 15 3 9 6 -18 7 -16 33 1
33 9 0 12 7 9 20 -4 15 -9 18 -18 10 -6 -5 -15 -7 -18 -3 -11 10 -8 45 2 38
19 -11 23 18 6 49 -13 24 -16 43 -11 72 7 36 9 38 22 19 16 -21 16 -17 5 42
-6 33 -5 40 6 36 7 -3 13 -3 13 -1 0 10 -32 68 -40 73 -5 3 0 15 10 25 11 11
20 32 20 46 0 23 3 26 25 22 17 -4 25 -1 25 8 0 8 7 14 15 14 8 0 15 5 15 10
0 6 -9 10 -21 10 -16 0 -19 4 -14 20 4 11 2 20 -4 20 -6 0 -11 16 -11 35 0 31
3 35 25 35 29 0 33 15 8 29 -14 7 -15 12 -5 24 8 10 9 17 3 21 -6 4 -8 13 -4
21 3 8 0 15 -7 15 -6 0 -8 -4 -5 -10 3 -5 0 -10 -9 -10 -8 0 -16 6 -19 13 -2
7 -7 3 -11 -9z m23 -54 c13 0 8 -29 -6 -34 -8 -3 -11 -1 -8 5 4 5 1 16 -5 24
-7 8 -8 20 -4 27 7 10 9 9 12 -4 2 -10 7 -18 11 -18z"/>
<path d="M1896 1338 c18 -35 24 -35 21 0 -1 18 -8 28 -19 28 -15 0 -15 -3 -2
-28z"/>
<path d="M2395 1360 c3 -5 8 -10 11 -10 2 0 4 5 4 10 0 6 -5 10 -11 10 -5 0
-7 -4 -4 -10z"/>
<path d="M5095 1330 c3 -5 8 -10 11 -10 2 0 4 5 4 10 0 6 -5 10 -11 10 -5 0
-7 -4 -4 -10z"/>
<path d="M7570 1315 c0 -8 5 -15 10 -15 6 0 10 7 10 15 0 8 -4 15 -10 15 -5 0
-10 -7 -10 -15z"/>
<path d="M1841 1308 c-1 -11 -6 -15 -16 -12 -10 4 -15 0 -15 -11 0 -11 -5 -15
-15 -11 -13 4 -13 2 -5 -14 16 -29 13 -97 -5 -104 -23 -8 -19 -39 4 -33 22 5
31 -10 31 -54 0 -16 5 -29 13 -29 6 0 2 -8 -11 -18 l-23 -18 25 -12 c23 -10
26 -9 26 9 0 11 5 17 10 14 6 -3 10 0 10 9 0 8 -6 17 -12 20 -7 3 0 4 16 0 26
-5 28 -4 16 11 -9 11 -10 19 -3 23 14 10 25 72 13 72 -6 0 -13 -13 -16 -29 -4
-20 -11 -28 -20 -24 -8 3 -14 -1 -14 -11 0 -9 -5 -16 -11 -16 -7 0 -9 10 -5
25 4 14 3 25 -1 25 -5 0 -8 31 -9 70 -1 38 3 67 7 64 5 -3 9 1 9 10 0 8 4 16
9 18 4 2 5 12 0 23 -6 17 -8 17 -8 3z"/>
<path d="M4365 1310 c-3 -5 1 -10 9 -10 8 0 18 5 21 10 3 6 -1 10 -9 10 -8 0
-18 -4 -21 -10z"/>
<path d="M1880 1301 c0 -5 7 -11 14 -14 10 -4 13 -1 9 9 -6 15 -23 19 -23 5z"/>
<path d="M1946 1301 c-4 -7 -5 -15 -2 -18 9 -9 19 4 14 18 -4 11 -6 11 -12 0z"/>
<path d="M4523 1242 c-47 -25 -55 -42 -22 -42 11 0 17 4 14 10 -3 5 0 8 7 5
18 -6 51 20 46 37 -2 11 -13 8 -45 -10z"/>
<path d="M1700 1251 c0 -6 5 -13 10 -16 6 -3 10 1 10 9 0 9 -4 16 -10 16 -5 0
-10 -4 -10 -9z"/>
<path d="M1850 1245 c-8 -9 -8 -15 -2 -15 12 0 26 19 19 26 -2 2 -10 -2 -17
-11z"/>
<path d="M2020 1240 c0 -5 5 -10 10 -10 6 0 10 5 10 10 0 6 -4 10 -10 10 -5 0
-10 -4 -10 -10z"/>
<path d="M4420 1230 c0 -5 5 -10 11 -10 5 0 7 5 4 10 -3 6 -8 10 -11 10 -2 0
-4 -4 -4 -10z"/>
<path d="M5678 1223 c-43 -5 -50 -20 -13 -29 14 -3 22 -10 19 -15 -7 -13 13
-11 35 3 17 10 19 51 2 46 -3 -1 -23 -3 -43 -5z"/>
<path d="M1840 1200 c0 -6 7 -10 15 -10 8 0 15 2 15 4 0 2 -7 6 -15 10 -8 3
-15 1 -15 -4z"/>
<path d="M4380 1190 c-8 -5 -10 -10 -5 -10 6 0 17 5 25 10 8 5 11 10 5 10 -5
0 -17 -5 -25 -10z"/>
<path d="M5630 1170 c0 -5 5 -10 11 -10 5 0 7 5 4 10 -3 6 -8 10 -11 10 -2 0
-4 -4 -4 -10z"/>
<path d="M1711 1121 c-12 -8 -12 -14 -1 -40 7 -17 16 -31 21 -31 12 0 11 17
-1 25 -5 3 -10 16 -10 27 0 21 0 21 21 2 22 -19 22 -19 10 4 -13 24 -19 26
-40 13z"/>
<path d="M5596 1105 c4 -8 11 -15 16 -15 6 0 5 6 -2 15 -7 8 -14 15 -16 15 -2
0 -1 -7 2 -15z"/>
<path d="M5645 1090 c-3 -5 -2 -10 4 -10 5 0 13 5 16 10 3 6 2 10 -4 10 -5 0
-13 -4 -16 -10z"/>
<path d="M5636 1024 c-11 -7 -22 -11 -26 -9 -4 3 -10 -4 -13 -14 -4 -17 -2
-18 19 -9 13 6 27 8 32 3 4 -4 1 -10 -5 -12 -7 -3 -13 -9 -13 -15 0 -6 9 -3
20 7 11 10 17 22 13 27 -3 6 0 14 7 18 9 5 8 8 -2 12 -8 3 -22 0 -32 -8z"/>
<path d="M5680 999 c0 -5 5 -7 10 -4 6 3 10 8 10 11 0 2 -4 4 -10 4 -5 0 -10
-5 -10 -11z"/>
<path d="M1744 992 c-6 -4 -13 -15 -17 -24 -5 -14 -1 -18 16 -18 18 0 19 2 7
10 -13 9 -13 11 0 19 8 6 12 12 9 15 -2 3 -9 2 -15 -2z"/>
<path d="M1780 965 c-5 -13 -19 -26 -30 -30 -17 -5 -19 -10 -10 -18 10 -9 14
-9 17 1 3 6 13 12 22 12 10 0 27 8 38 18 l21 18 -25 11 c-21 10 -25 9 -33 -12z"/>
<path d="M1600 970 c0 -5 5 -10 11 -10 5 0 7 5 4 10 -3 6 -8 10 -11 10 -2 0
-4 -4 -4 -10z"/>
<path d="M2707 974 c-3 -3 -3 -12 0 -20 3 -8 0 -14 -6 -14 -6 0 -11 -4 -11
-10 0 -8 10 -8 49 -1 2 1 -2 7 -8 14 -6 8 -8 16 -5 19 3 3 1 9 -4 12 -5 3 -12
3 -15 0z"/>
<path d="M2740 970 c0 -5 5 -10 10 -10 6 0 10 5 10 10 0 6 -4 10 -10 10 -5 0
-10 -4 -10 -10z"/>
<path d="M7641 951 c-7 -5 -12 -14 -10 -20 3 -7 11 -3 21 9 18 21 13 26 -11
11z"/>
<path d="M4510 919 l-25 -20 35 17 c43 20 47 24 29 24 -8 0 -25 -10 -39 -21z"/>
<path d="M5615 930 c-3 -5 -1 -10 4 -10 6 0 11 5 11 10 0 6 -2 10 -4 10 -3 0
-8 -4 -11 -10z"/>
<path d="M7669 923 c-13 -16 -12 -17 4 -4 16 13 21 21 13 21 -2 0 -10 -8 -17
-17z"/>
<path d="M2650 921 c0 -6 5 -13 10 -16 6 -3 10 1 10 9 0 9 -4 16 -10 16 -5 0
-10 -4 -10 -9z"/>
<path d="M5430 920 c-9 -6 -10 -10 -3 -10 6 0 15 5 18 10 8 12 4 12 -15 0z"/>
<path d="M5695 900 c-3 -5 1 -10 9 -10 9 0 16 5 16 10 0 6 -4 10 -9 10 -6 0
-13 -4 -16 -10z"/>
<path d="M4510 880 c-8 -5 -10 -10 -5 -10 6 0 17 5 25 10 8 5 11 10 5 10 -5 0
-17 -5 -25 -10z"/>
<path d="M1660 870 c0 -5 5 -10 10 -10 6 0 10 5 10 10 0 6 -4 10 -10 10 -5 0
-10 -4 -10 -10z"/>
<path d="M5555 860 c-14 -16 -15 -20 -4 -20 16 0 39 19 39 32 0 14 -16 9 -35
-12z"/>
<path d="M1728 827 c-6 -51 -4 -54 18 -32 13 12 14 19 5 24 -6 4 -9 15 -6 23
4 9 2 19 -3 22 -6 3 -12 -13 -14 -37z"/>
<path d="M5598 852 c-16 -9 -28 -20 -28 -24 0 -12 6 -10 46 17 41 28 25 34
-18 7z"/>
<path d="M1640 836 c0 -8 5 -18 10 -21 6 -3 10 1 10 9 0 8 -4 18 -10 21 -5 3
-10 -1 -10 -9z"/>
<path d="M2610 830 c0 -5 5 -10 10 -10 6 0 10 5 10 10 0 6 -4 10 -10 10 -5 0
-10 -4 -10 -10z"/>
<path d="M5755 830 c-3 -5 1 -10 9 -10 9 0 16 5 16 10 0 6 -4 10 -9 10 -6 0
-13 -4 -16 -10z"/>
<path d="M1680 811 c0 -10 -3 -27 -6 -35 -5 -12 -2 -15 10 -10 18 7 22 49 6
59 -5 3 -10 -3 -10 -14z"/>
<path d="M5601 816 c-14 -8 -30 -12 -36 -10 -6 3 -20 -5 -31 -17 l-19 -22 25
8 c36 11 110 45 110 50 0 9 -25 4 -49 -9z"/>
<path d="M7310 810 c-20 -12 -10 -19 14 -10 11 3 15 9 10 13 -6 3 -16 2 -24
-3z"/>
<path d="M2625 800 c4 -6 11 -8 16 -5 14 9 11 15 -7 15 -8 0 -12 -5 -9 -10z"/>
<path d="M5670 800 c0 -5 5 -10 10 -10 6 0 10 5 10 10 0 6 -4 10 -10 10 -5 0
-10 -4 -10 -10z"/>
<path d="M1602 770 c0 -14 2 -19 5 -12 2 6 2 18 0 25 -3 6 -5 1 -5 -13z"/>
<path d="M2570 773 c0 -12 5 -25 10 -28 13 -8 13 15 0 35 -8 12 -10 11 -10 -7z"/>
<path d="M3071 764 c0 -11 3 -14 6 -6 3 7 2 16 -1 19 -3 4 -6 -2 -5 -13z"/>
<path d="M5590 760 c-9 -6 -10 -10 -3 -10 6 0 15 5 18 10 8 12 4 12 -15 0z"/>
<path d="M1640 730 c0 -5 7 -10 16 -10 8 0 12 5 9 10 -3 6 -10 10 -16 10 -5 0
-9 -4 -9 -10z"/>
<path d="M6110 730 c-9 -6 -10 -10 -3 -10 6 0 15 5 18 10 8 12 4 12 -15 0z"/>
<path d="M7206 725 c-11 -8 -15 -15 -10 -15 6 0 19 7 30 15 10 8 15 14 9 14
-5 0 -19 -6 -29 -14z"/>
<path d="M4430 720 c-9 -6 -10 -10 -3 -10 6 0 15 5 18 10 8 12 4 12 -15 0z"/>
<path d="M5390 710 c0 -5 5 -10 10 -10 6 0 10 5 10 10 0 6 -4 10 -10 10 -5 0
-10 -4 -10 -10z"/>
<path d="M5530 700 c-19 -11 -29 -19 -23 -20 7 0 27 9 45 20 42 25 24 25 -22
0z"/>
<path d="M5465 700 c-3 -5 1 -10 10 -10 9 0 13 5 10 10 -3 6 -8 10 -10 10 -2
0 -7 -4 -10 -10z"/>
<path d="M7226 701 c-4 -7 -5 -15 -2 -18 9 -9 19 4 14 18 -4 11 -6 11 -12 0z"/>
<path d="M4005 680 c-3 -5 -2 -10 4 -10 5 0 13 5 16 10 3 6 2 10 -4 10 -5 0
-13 -4 -16 -10z"/>
<path d="M1557 649 c-18 -20 -18 -21 1 -15 15 5 22 0 32 -24 7 -17 15 -29 17
-26 2 2 -2 17 -10 33 -8 15 -12 34 -10 41 7 19 -11 14 -30 -9z"/>
<path d="M5530 660 c-9 -6 -10 -10 -3 -10 6 0 15 5 18 10 8 12 4 12 -15 0z"/>
<path d="M1615 630 c3 -5 8 -10 11 -10 2 0 4 5 4 10 0 6 -5 10 -11 10 -5 0 -7
-4 -4 -10z"/>
<path d="M5540 625 c-14 -8 -40 -14 -57 -15 -30 0 -32 -2 -23 -25 5 -14 7 -32
4 -40 -9 -22 20 -19 41 5 10 11 26 20 37 20 10 0 18 5 18 11 0 7 -11 8 -30 4
-19 -4 -30 -3 -30 4 0 7 14 14 30 18 17 3 33 10 36 15 10 16 0 17 -26 3z"/>
<path d="M5344 615 c-10 -8 -14 -15 -7 -15 19 0 43 11 43 21 0 13 -14 11 -36
-6z"/>
<path d="M5328 568 c-16 -5 -28 -14 -28 -19 0 -12 2 -12 38 7 49 24 42 32 -10
12z"/>
<path d="M5425 570 c-3 -5 3 -10 15 -10 12 0 18 5 15 10 -3 6 -10 10 -15 10
-5 0 -12 -4 -15 -10z"/>
<path d="M5580 567 c-19 -6 -41 -17 -49 -25 -7 -7 -26 -16 -42 -19 -16 -3 -34
-12 -41 -21 -11 -13 -9 -14 17 -8 17 4 50 21 74 37 25 16 53 29 63 29 10 0 18
5 18 10 0 6 -1 10 -2 9 -2 -1 -19 -6 -38 -12z"/>
<path d="M1533 563 c-20 -7 -15 -23 7 -23 11 0 20 4 20 9 0 13 -12 19 -27 14z"/>
<path d="M2416 535 c-16 -12 -17 -15 -4 -15 8 0 21 7 28 15 16 19 1 19 -24 0z"/>
<path d="M7110 530 c0 -5 -9 -10 -19 -10 -11 0 -23 -5 -27 -11 -4 -8 1 -9 17
-4 29 9 60 35 41 35 -7 0 -12 -4 -12 -10z"/>
<path d="M5308 513 c7 -3 16 -2 19 1 4 3 -2 6 -13 5 -11 0 -14 -3 -6 -6z"/>
<path d="M7150 510 c0 -5 5 -10 11 -10 5 0 7 5 4 10 -3 6 -8 10 -11 10 -2 0
-4 -4 -4 -10z"/>
<path d="M5373 499 c-41 -12 -43 -23 -3 -17 19 3 31 0 35 -9 8 -21 24 -6 18
17 -6 22 -5 22 -50 9z"/>
<path d="M5514 495 c-39 -17 -64 -45 -40 -45 9 0 16 5 16 10 0 6 4 10 10 10 5
0 24 9 42 20 37 22 19 26 -28 5z"/>
<path d="M5585 480 c-3 -6 1 -7 9 -4 18 7 21 14 7 14 -6 0 -13 -4 -16 -10z"/>
<path d="M7095 480 c-4 -6 5 -10 19 -10 14 0 26 5 26 10 0 6 -9 10 -19 10 -11
0 -23 -4 -26 -10z"/>
<path d="M8097 484 c-8 -8 1 -24 14 -24 5 0 9 7 9 15 0 15 -12 20 -23 9z"/>
<path d="M5296 465 c-11 -8 -15 -15 -10 -15 6 0 19 7 30 15 10 8 15 14 9 14
-5 0 -19 -6 -29 -14z"/>
<path d="M5517 450 c-21 -11 -58 -23 -82 -27 -25 -3 -42 -10 -39 -14 3 -5 -1
-9 -8 -9 -10 0 -11 -2 0 -8 9 -6 6 -12 -13 -20 -14 -6 -25 -20 -25 -29 1 -17
1 -17 14 0 14 19 52 24 40 6 -8 -13 -9 -13 69 21 68 30 75 45 12 24 -25 -9
-50 -14 -57 -12 -13 5 47 38 69 38 7 0 13 5 13 10 0 6 6 10 13 10 14 1 55 30
41 30 -5 0 -26 -9 -47 -20z"/>
<path d="M1610 450 c0 -5 5 -10 11 -10 5 0 7 5 4 10 -3 6 -8 10 -11 10 -2 0
-4 -4 -4 -10z"/>
<path d="M5317 440 c-20 -11 -45 -20 -54 -20 -12 0 -14 -3 -6 -11 7 -7 27 -2
69 20 33 16 52 30 44 31 -8 0 -32 -9 -53 -20z"/>
<path d="M1596 395 c8 -37 14 -45 14 -19 0 10 -5 26 -10 34 -8 11 -9 7 -4 -15z"/>
<path d="M5334 405 c-10 -8 -14 -15 -7 -15 19 0 43 11 43 21 0 13 -14 11 -36
-6z"/>
<path d="M4396 393 c-6 -14 -5 -15 5 -6 7 7 10 15 7 18 -3 3 -9 -2 -12 -12z"/>
<path d="M1545 384 c7 -8 16 -14 18 -14 3 0 7 6 10 14 4 9 -2 14 -18 14 -20 0
-22 -3 -10 -14z"/>
<path d="M1804 371 c3 -18 6 -37 6 -42 0 -15 18 -10 24 7 3 9 -3 27 -15 42
l-22 27 7 -34z"/>
<path d="M5505 359 c-49 -21 -96 -37 -103 -34 -7 3 -10 0 -7 -5 3 -5 -12 -13
-35 -16 -34 -6 -40 -10 -35 -25 4 -13 2 -17 -7 -14 -7 3 -24 -4 -37 -14 l-24
-18 24 0 c48 -1 52 -2 40 -16 -14 -17 -4 -27 27 -27 25 0 76 25 102 49 13 13
13 14 -5 7 -11 -5 -29 -11 -40 -14 -11 -2 -25 -9 -32 -14 -8 -6 -16 -2 -24 14
-11 21 -11 22 5 9 14 -12 19 -12 34 2 9 8 55 34 102 57 47 23 73 39 58 36 -31
-7 -51 -15 -128 -55 -30 -16 -59 -26 -64 -23 -12 7 23 32 45 32 10 0 24 6 31
13 7 7 48 30 91 50 42 20 77 39 77 42 0 7 7 9 -95 -36z"/>
<path d="M5280 375 c-17 -10 -20 -14 -9 -15 9 0 22 7 29 15 15 18 12 18 -20 0z"/>
<path d="M4040 360 c0 -5 5 -10 10 -10 6 0 10 5 10 10 0 6 -4 10 -10 10 -5 0
-10 -4 -10 -10z"/>
<path d="M5282 338 c-24 -11 -42 -21 -40 -23 7 -8 55 8 78 26 32 24 17 23 -38
-3z"/>
<path d="M4010 342 c0 -5 7 -15 15 -22 8 -7 15 -8 15 -2 0 5 -7 15 -15 22 -8
7 -15 8 -15 2z"/>
<path d="M5630 320 c0 -5 5 -10 11 -10 5 0 7 5 4 10 -3 6 -8 10 -11 10 -2 0
-4 -4 -4 -10z"/>
<path d="M2237 314 c-3 -3 -3 -12 0 -20 6 -16 33 -19 33 -4 0 6 -7 10 -16 10
-8 0 -12 5 -9 10 7 11 2 14 -8 4z"/>
<path d="M9424 299 c-3 -6 -1 -16 5 -22 8 -8 11 -5 11 11 0 24 -5 28 -16 11z"/>
<path d="M1700 284 c0 -8 5 -12 10 -9 6 3 10 10 10 16 0 5 -4 9 -10 9 -5 0
-10 -7 -10 -16z"/>
<path d="M1610 279 c0 -5 -4 -8 -10 -4 -5 3 -18 -3 -30 -15 -11 -11 -27 -20
-35 -20 -8 0 -15 -4 -15 -10 0 -5 7 -10 16 -10 13 0 15 -8 12 -35 -3 -24 0
-35 9 -35 7 0 13 9 13 19 0 11 4 22 9 25 4 3 6 17 3 32 -4 20 -1 25 9 22 8 -3
19 2 26 11 15 20 16 31 3 31 -5 0 -10 -5 -10 -11z"/>
<path d="M2180 261 c7 -13 9 -37 6 -53 -5 -26 -4 -27 9 -14 20 20 19 36 -6 66
-20 25 -20 25 -9 1z"/>
<path d="M5223 263 c-10 -10 -14 -15 -9 -10 6 4 18 7 28 7 10 0 18 5 18 10 0
15 -16 12 -37 -7z"/>
<path d="M4221 254 c0 -11 3 -14 6 -6 3 7 2 16 -1 19 -3 4 -6 -2 -5 -13z"/>
<path d="M4400 260 c-8 -5 -10 -10 -5 -10 6 0 17 5 25 10 8 5 11 10 5 10 -5 0
-17 -5 -25 -10z"/>
<path d="M4455 259 c-11 -17 1 -21 15 -4 8 9 8 15 2 15 -6 0 -14 -5 -17 -11z"/>
<path d="M8395 260 c-3 -5 -2 -10 4 -10 5 0 13 5 16 10 3 6 2 10 -4 10 -5 0
-13 -4 -16 -10z"/>
<path d="M2151 245 c0 -11 4 -27 9 -35 9 -13 10 -13 9 0 0 8 -4 24 -9 35 l-9
20 0 -20z"/>
<path d="M1430 240 c-13 -9 -13 -11 0 -20 22 -14 34 -12 21 3 -6 8 -8 17 -4
20 9 10 0 8 -17 -3z"/>
<path d="M5520 243 c-8 -3 -41 -18 -73 -34 -32 -16 -64 -29 -72 -29 -8 0 -15
-5 -15 -10 0 -6 -8 -5 -19 2 -17 10 -28 8 -68 -12 -26 -13 -42 -25 -35 -28 7
-2 20 2 28 9 20 17 68 24 59 9 -3 -5 -13 -10 -21 -10 -8 0 -14 -4 -14 -10 0
-5 4 -10 9 -10 8 0 241 117 250 125 6 6 -9 5 -29 -2z"/>
<path d="M9420 240 c0 -5 5 -10 10 -10 6 0 10 5 10 10 0 6 -4 10 -10 10 -5 0
-10 -4 -10 -10z"/>
<path d="M6970 210 c-9 -6 -10 -10 -3 -10 6 0 15 5 18 10 8 12 4 12 -15 0z"/>
<path d="M2097 203 c-3 -4 1 -17 9 -28 10 -13 14 -15 14 -4 0 20 -16 43 -23
32z"/>
<path d="M5180 200 c-13 -8 -13 -10 2 -10 9 0 20 5 23 10 8 13 -5 13 -25 0z"/>
<path d="M5490 185 c-23 -13 -88 -42 -162 -73 -16 -6 -28 -17 -28 -23 0 -6 -7
-9 -15 -5 -8 3 -15 1 -15 -4 0 -6 -6 -10 -14 -10 -8 0 -21 -6 -28 -13 -7 -7
-22 -16 -33 -21 -16 -6 -17 -9 -5 -16 11 -7 19 -4 29 10 14 21 41 27 41 10 0
-5 -4 -10 -10 -10 -5 0 -10 -7 -10 -15 0 -21 16 -19 40 5 11 11 28 20 37 20 9
0 24 6 32 13 9 8 32 20 51 27 39 14 113 61 106 67 -2 2 -21 -3 -41 -11 -46
-19 -51 -20 -36 -3 6 8 29 22 51 32 22 10 40 22 40 27 0 10 0 10 -30 -7z
m-114 -90 c-11 -8 -27 -15 -35 -14 -9 0 -2 7 14 14 39 18 45 18 21 0z"/>
<path d="M9410 186 c0 -8 -7 -16 -15 -20 -22 -8 -18 -26 5 -26 25 0 26 -17 1
-25 -10 -3 -21 -15 -24 -26 -3 -12 -10 -18 -16 -14 -7 4 -8 0 -5 -10 4 -9 20
-19 35 -22 27 -5 28 -7 12 -19 -11 -8 -22 -9 -27 -3 -15 14 -26 11 -26 -6 0
-11 12 -15 46 -15 l45 0 -3 37 c-2 30 -8 39 -28 44 l-25 7 28 1 c26 1 27 3 27
56 0 42 -3 55 -15 55 -8 0 -15 -6 -15 -14z"/>
<path d="M4005 180 c-3 -5 -1 -10 4 -10 6 0 11 5 11 10 0 6 -2 10 -4 10 -3 0
-8 -4 -11 -10z"/>
<path d="M1765 160 c-3 -6 1 -7 9 -4 18 7 21 14 7 14 -6 0 -13 -4 -16 -10z"/>
<path d="M2037 155 c3 -8 9 -12 14 -9 12 7 11 11 -5 17 -10 4 -13 1 -9 -8z"/>
<path d="M4000 139 c-11 -19 -10 -20 9 -10 27 15 36 31 17 31 -8 0 -20 -9 -26
-21z"/>
<path d="M5912 151 c-7 -4 -23 -6 -35 -4 -13 3 -42 -7 -67 -21 -25 -14 -39
-26 -32 -26 7 0 24 7 37 16 14 9 34 14 45 11 21 -5 70 12 70 26 0 9 -2 9 -18
-2z"/>
<path d="M5183 120 c-13 -5 -23 -12 -23 -15 0 -10 27 -5 46 10 21 16 11 18
-23 5z"/>
<path d="M6245 90 c-3 -5 -1 -10 4 -10 6 0 11 5 11 10 0 6 -2 10 -4 10 -3 0
-8 -4 -11 -10z"/>
<path d="M5175 73 c-11 -3 -29 -12 -40 -19 -16 -12 -17 -14 -3 -14 9 0 20 5
23 10 3 6 15 10 25 10 10 0 22 5 25 10 6 11 3 11 -30 3z"/>
<path d="M5448 73 c7 -3 16 -2 19 1 4 3 -2 6 -13 5 -11 0 -14 -3 -6 -6z"/>
<path d="M6795 60 c-3 -5 -1 -10 4 -10 6 0 11 5 11 10 0 6 -2 10 -4 10 -3 0
-8 -4 -11 -10z"/>
<path d="M7950 58 c-16 -7 -20 -12 -12 -15 8 -3 21 2 30 11 19 18 17 19 -18 4z"/>
<path d="M5350 32 c-33 -16 -48 -28 -38 -30 9 -2 43 10 75 27 72 37 39 40 -37
3z"/>
<path d="M4131 20 c-22 -19 -22 -20 -3 -20 11 0 22 8 25 20 3 11 4 20 4 20 -1
-1 -13 -10 -26 -20z"/>
<path d="M7875 30 c-3 -5 -2 -10 4 -10 5 0 13 5 16 10 3 6 2 10 -4 10 -5 0
-13 -4 -16 -10z"/>
<path d="M3980 14 c0 -17 22 -14 28 4 2 7 -3 12 -12 12 -9 0 -16 -7 -16 -16z"/>
<path d="M5150 10 c-13 -8 -12 -10 3 -10 9 0 17 5 17 10 0 12 -1 12 -20 0z"/>
<path d="M5405 10 c-18 -8 -17 -9 8 -9 15 -1 27 4 27 9 0 12 -8 12 -35 0z"/>
<path d="M7938 3 c7 -3 16 -2 19 1 4 3 -2 6 -13 5 -11 0 -14 -3 -6 -6z"/>
</g>
</svg>
